<?xml version="1.0" encoding="us-ascii" standalone="no"?><svg xmlns="http://www.w3.org/2000/svg" xmlns:xlink="http://www.w3.org/1999/xlink" contentStyleType="text/css" height="1251px" preserveAspectRatio="none" style="width:1668px;height:1251px;background:#FFFFFF;" version="1.1" viewBox="0 0 1668 1251" width="1668px" zoomAndPan="magnify"><defs/><g><!--class pocketsage.models.account.Account--><g id="elem_pocketsage.models.account.Account"><rect codeLine="2" fill="#F1F1F1" height="136.0469" id="pocketsage.models.account.Account" rx="2.5" ry="2.5" style="stroke:#181818;stroke-width:0.5;" width="212" x="77" y="16"/><ellipse cx="153.25" cy="32" fill="#ADD1B2" rx="11" ry="11" style="stroke:#181818;stroke-width:1.0;"/><path d="M156.0156,27.875 Q156.1719,27.6563 156.3594,27.5469 Q156.5469,27.4375 156.7656,27.4375 Q157.1406,27.4375 157.375,27.7031 Q157.6094,27.9531 157.6094,28.5625 L157.6094,30.0156 Q157.6094,30.625 157.375,30.8906 Q157.1406,31.1563 156.7656,31.1563 Q156.4219,31.1563 156.2188,30.9531 Q156.0156,30.7656 155.9063,30.25 Q155.8594,29.8906 155.6719,29.7031 Q155.3438,29.3281 154.7344,29.1094 Q154.125,28.8906 153.5,28.8906 Q152.7344,28.8906 152.0938,29.2188 Q151.4688,29.5469 150.9688,30.2969 Q150.4844,31.0469 150.4844,32.0781 L150.4844,33.1719 Q150.4844,34.4063 151.375,35.2344 Q152.2656,36.0469 153.8594,36.0469 Q154.7969,36.0469 155.4531,35.7969 Q155.8438,35.6406 156.2656,35.2031 Q156.5313,34.9375 156.6719,34.8594 Q156.8281,34.7813 157.0313,34.7813 Q157.3594,34.7813 157.6094,35.0469 Q157.875,35.2969 157.875,35.6406 Q157.875,35.9844 157.5313,36.3906 Q157.0313,36.9688 156.2344,37.2969 Q155.1563,37.75 153.8594,37.75 Q152.3438,37.75 151.1406,37.125 Q150.1563,36.625 149.4688,35.5625 Q148.7813,34.4844 148.7813,33.2031 L148.7813,32.0469 Q148.7813,30.7188 149.3906,29.5781 Q150.0156,28.4219 151.1094,27.8125 Q152.2031,27.1875 153.4375,27.1875 Q154.1719,27.1875 154.8125,27.3594 Q155.4688,27.5156 156.0156,27.875 Z " fill="#000000"/><text fill="#000000" font-family="sans-serif" font-size="14" lengthAdjust="spacing" textLength="51" x="173.75" y="37.7285">Account</text><line style="stroke:#181818;stroke-width:0.5;" x1="78" x2="288" y1="48" y2="48"/><text fill="#000000" font-family="sans-serif" font-size="14" lengthAdjust="spacing" textLength="83" x="83" y="66.5332">currency : str</text><text fill="#000000" font-family="sans-serif" font-size="14" lengthAdjust="spacing" textLength="148" x="83" y="84.1426">holdings : List['Holding']</text><text fill="#000000" font-family="sans-serif" font-size="14" lengthAdjust="spacing" textLength="99" x="83" y="101.752">id : Optional[int]</text><text fill="#000000" font-family="sans-serif" font-size="14" lengthAdjust="spacing" textLength="63" x="83" y="119.3613">name : str</text><text fill="#000000" font-family="sans-serif" font-size="14" lengthAdjust="spacing" textLength="200" x="83" y="136.9707">transactions : List['Transaction']</text><line style="stroke:#181818;stroke-width:0.5;" x1="78" x2="288" y1="144.0469" y2="144.0469"/></g><!--class pocketsage.services.debts.AmortizationWriter--><g id="elem_pocketsage.services.debts.AmortizationWriter"><rect codeLine="9" fill="#F1F1F1" height="65.6094" id="pocketsage.services.debts.AmortizationWriter" rx="2.5" ry="2.5" style="stroke:#181818;stroke-width:0.5;" width="170" x="324" y="51"/><ellipse cx="349.35" cy="67" fill="#ADD1B2" rx="11" ry="11" style="stroke:#181818;stroke-width:1.0;"/><path d="M352.1156,62.875 Q352.2719,62.6563 352.4594,62.5469 Q352.6469,62.4375 352.8656,62.4375 Q353.2406,62.4375 353.475,62.7031 Q353.7094,62.9531 353.7094,63.5625 L353.7094,65.0156 Q353.7094,65.625 353.475,65.8906 Q353.2406,66.1563 352.8656,66.1563 Q352.5219,66.1563 352.3188,65.9531 Q352.1156,65.7656 352.0063,65.25 Q351.9594,64.8906 351.7719,64.7031 Q351.4438,64.3281 350.8344,64.1094 Q350.225,63.8906 349.6,63.8906 Q348.8344,63.8906 348.1938,64.2188 Q347.5688,64.5469 347.0688,65.2969 Q346.5844,66.0469 346.5844,67.0781 L346.5844,68.1719 Q346.5844,69.4063 347.475,70.2344 Q348.3656,71.0469 349.9594,71.0469 Q350.8969,71.0469 351.5531,70.7969 Q351.9438,70.6406 352.3656,70.2031 Q352.6313,69.9375 352.7719,69.8594 Q352.9281,69.7813 353.1313,69.7813 Q353.4594,69.7813 353.7094,70.0469 Q353.975,70.2969 353.975,70.6406 Q353.975,70.9844 353.6313,71.3906 Q353.1313,71.9688 352.3344,72.2969 Q351.2563,72.75 349.9594,72.75 Q348.4438,72.75 347.2406,72.125 Q346.2563,71.625 345.5688,70.5625 Q344.8813,69.4844 344.8813,68.2031 L344.8813,67.0469 Q344.8813,65.7188 345.4906,64.5781 Q346.1156,63.4219 347.2094,62.8125 Q348.3031,62.1875 349.5375,62.1875 Q350.2719,62.1875 350.9125,62.3594 Q351.5688,62.5156 352.1156,62.875 Z " fill="#000000"/><text fill="#000000" font-family="sans-serif" font-size="14" lengthAdjust="spacing" textLength="115" x="365.65" y="72.7285">AmortizationWriter</text><line style="stroke:#181818;stroke-width:0.5;" x1="325" x2="493" y1="83" y2="83"/><line style="stroke:#181818;stroke-width:0.5;" x1="325" x2="493" y1="91" y2="91"/><text fill="#000000" font-family="sans-serif" font-size="14" lengthAdjust="spacing" textLength="158" x="330" y="109.5332">write_schedule() -&gt; None</text></g><!--class pocketsage.models.settings.AppSetting--><g id="elem_pocketsage.models.settings.AppSetting"><rect codeLine="12" fill="#F1F1F1" height="100.8281" id="pocketsage.models.settings.AppSetting" rx="2.5" ry="2.5" style="stroke:#181818;stroke-width:0.5;" width="170" x="529" y="33.5"/><ellipse cx="575.25" cy="49.5" fill="#ADD1B2" rx="11" ry="11" style="stroke:#181818;stroke-width:1.0;"/><path d="M578.0156,45.375 Q578.1719,45.1563 578.3594,45.0469 Q578.5469,44.9375 578.7656,44.9375 Q579.1406,44.9375 579.375,45.2031 Q579.6094,45.4531 579.6094,46.0625 L579.6094,47.5156 Q579.6094,48.125 579.375,48.3906 Q579.1406,48.6563 578.7656,48.6563 Q578.4219,48.6563 578.2188,48.4531 Q578.0156,48.2656 577.9063,47.75 Q577.8594,47.3906 577.6719,47.2031 Q577.3438,46.8281 576.7344,46.6094 Q576.125,46.3906 575.5,46.3906 Q574.7344,46.3906 574.0938,46.7188 Q573.4688,47.0469 572.9688,47.7969 Q572.4844,48.5469 572.4844,49.5781 L572.4844,50.6719 Q572.4844,51.9063 573.375,52.7344 Q574.2656,53.5469 575.8594,53.5469 Q576.7969,53.5469 577.4531,53.2969 Q577.8438,53.1406 578.2656,52.7031 Q578.5313,52.4375 578.6719,52.3594 Q578.8281,52.2813 579.0313,52.2813 Q579.3594,52.2813 579.6094,52.5469 Q579.875,52.7969 579.875,53.1406 Q579.875,53.4844 579.5313,53.8906 Q579.0313,54.4688 578.2344,54.7969 Q577.1563,55.25 575.8594,55.25 Q574.3438,55.25 573.1406,54.625 Q572.1563,54.125 571.4688,53.0625 Q570.7813,51.9844 570.7813,50.7031 L570.7813,49.5469 Q570.7813,48.2188 571.3906,47.0781 Q572.0156,45.9219 573.1094,45.3125 Q574.2031,44.6875 575.4375,44.6875 Q576.1719,44.6875 576.8125,44.8594 Q577.4688,45.0156 578.0156,45.375 Z " fill="#000000"/><text fill="#000000" font-family="sans-serif" font-size="14" lengthAdjust="spacing" textLength="69" x="595.75" y="55.2285">AppSetting</text><line style="stroke:#181818;stroke-width:0.5;" x1="530" x2="698" y1="65.5" y2="65.5"/><text fill="#000000" font-family="sans-serif" font-size="14" lengthAdjust="spacing" textLength="158" x="535" y="84.0332">description : Optional[str]</text><text fill="#000000" font-family="sans-serif" font-size="14" lengthAdjust="spacing" textLength="50" x="535" y="101.6426">key : str</text><text fill="#000000" font-family="sans-serif" font-size="14" lengthAdjust="spacing" textLength="62" x="535" y="119.252">value : str</text><line style="stroke:#181818;stroke-width:0.5;" x1="530" x2="698" y1="126.3281" y2="126.3281"/></g><!--class pocketsage.config.BaseConfig--><g id="elem_pocketsage.config.BaseConfig"><rect codeLine="17" fill="#F1F1F1" height="224.0938" id="pocketsage.config.BaseConfig" rx="2.5" ry="2.5" style="stroke:#181818;stroke-width:0.5;" width="296" x="1365" y="221"/><ellipse cx="1472.25" cy="237" fill="#ADD1B2" rx="11" ry="11" style="stroke:#181818;stroke-width:1.0;"/><path d="M1475.0156,232.875 Q1475.1719,232.6563 1475.3594,232.5469 Q1475.5469,232.4375 1475.7656,232.4375 Q1476.1406,232.4375 1476.375,232.7031 Q1476.6094,232.9531 1476.6094,233.5625 L1476.6094,235.0156 Q1476.6094,235.625 1476.375,235.8906 Q1476.1406,236.1563 1475.7656,236.1563 Q1475.4219,236.1563 1475.2188,235.9531 Q1475.0156,235.7656 1474.9063,235.25 Q1474.8594,234.8906 1474.6719,234.7031 Q1474.3438,234.3281 1473.7344,234.1094 Q1473.125,233.8906 1472.5,233.8906 Q1471.7344,233.8906 1471.0938,234.2188 Q1470.4688,234.5469 1469.9688,235.2969 Q1469.4844,236.0469 1469.4844,237.0781 L1469.4844,238.1719 Q1469.4844,239.4063 1470.375,240.2344 Q1471.2656,241.0469 1472.8594,241.0469 Q1473.7969,241.0469 1474.4531,240.7969 Q1474.8438,240.6406 1475.2656,240.2031 Q1475.5313,239.9375 1475.6719,239.8594 Q1475.8281,239.7813 1476.0313,239.7813 Q1476.3594,239.7813 1476.6094,240.0469 Q1476.875,240.2969 1476.875,240.6406 Q1476.875,240.9844 1476.5313,241.3906 Q1476.0313,241.9688 1475.2344,242.2969 Q1474.1563,242.75 1472.8594,242.75 Q1471.3438,242.75 1470.1406,242.125 Q1469.1563,241.625 1468.4688,240.5625 Q1467.7813,239.4844 1467.7813,238.2031 L1467.7813,237.0469 Q1467.7813,235.7188 1468.3906,234.5781 Q1469.0156,233.4219 1470.1094,232.8125 Q1471.2031,232.1875 1472.4375,232.1875 Q1473.1719,232.1875 1473.8125,232.3594 Q1474.4688,232.5156 1475.0156,232.875 Z " fill="#000000"/><text fill="#000000" font-family="sans-serif" font-size="14" lengthAdjust="spacing" textLength="73" x="1492.75" y="242.7285">BaseConfig</text><line style="stroke:#181818;stroke-width:0.5;" x1="1366" x2="1660" y1="253" y2="253"/><text fill="#000000" font-family="sans-serif" font-size="14" lengthAdjust="spacing" textLength="101" x="1371" y="271.5332">APP_NAME : str</text><text fill="#000000" font-family="sans-serif" font-size="14" lengthAdjust="spacing" textLength="185" x="1371" y="289.1426">DATABASE_URL : NoneType</text><text fill="#000000" font-family="sans-serif" font-size="14" lengthAdjust="spacing" textLength="109" x="1371" y="306.752">DATA_DIR : Path</text><text fill="#000000" font-family="sans-serif" font-size="14" lengthAdjust="spacing" textLength="122" x="1371" y="324.3613">DB_FILENAME : str</text><text fill="#000000" font-family="sans-serif" font-size="14" lengthAdjust="spacing" textLength="168" x="1371" y="341.9707">SECRET_KEY : NoneType</text><text fill="#000000" font-family="sans-serif" font-size="14" lengthAdjust="spacing" textLength="151" x="1371" y="359.5801">SQLCIPHER_FLAG : str</text><text fill="#000000" font-family="sans-serif" font-size="14" lengthAdjust="spacing" textLength="176" x="1371" y="377.1895">SQLCIPHER_KEY_ENV : str</text><text fill="#000000" font-family="sans-serif" font-size="14" lengthAdjust="spacing" textLength="159" x="1371" y="394.7988">SQLITE_PRAGMAS : dict</text><text fill="#000000" font-family="sans-serif" font-size="14" lengthAdjust="spacing" textLength="152" x="1371" y="412.4082">USE_SQLCIPHER : bool</text><line style="stroke:#181818;stroke-width:0.5;" x1="1366" x2="1660" y1="419.4844" y2="419.4844"/><text fill="#000000" font-family="sans-serif" font-size="14" lengthAdjust="spacing" textLength="284" x="1371" y="438.0176">sqlalchemy_engine_options() -&gt; dict[str, Any]</text></g><!--class pocketsage.models.budget.Budget--><g id="elem_pocketsage.models.budget.Budget"><rect codeLine="29" fill="#F1F1F1" height="136.0469" id="pocketsage.models.budget.Budget" rx="2.5" ry="2.5" style="stroke:#181818;stroke-width:0.5;" width="161" x="734.5" y="16"/><ellipse cx="788.25" cy="32" fill="#ADD1B2" rx="11" ry="11" style="stroke:#181818;stroke-width:1.0;"/><path d="M791.0156,27.875 Q791.1719,27.6563 791.3594,27.5469 Q791.5469,27.4375 791.7656,27.4375 Q792.1406,27.4375 792.375,27.7031 Q792.6094,27.9531 792.6094,28.5625 L792.6094,30.0156 Q792.6094,30.625 792.375,30.8906 Q792.1406,31.1563 791.7656,31.1563 Q791.4219,31.1563 791.2188,30.9531 Q791.0156,30.7656 790.9063,30.25 Q790.8594,29.8906 790.6719,29.7031 Q790.3438,29.3281 789.7344,29.1094 Q789.125,28.8906 788.5,28.8906 Q787.7344,28.8906 787.0938,29.2188 Q786.4688,29.5469 785.9688,30.2969 Q785.4844,31.0469 785.4844,32.0781 L785.4844,33.1719 Q785.4844,34.4063 786.375,35.2344 Q787.2656,36.0469 788.8594,36.0469 Q789.7969,36.0469 790.4531,35.7969 Q790.8438,35.6406 791.2656,35.2031 Q791.5313,34.9375 791.6719,34.8594 Q791.8281,34.7813 792.0313,34.7813 Q792.3594,34.7813 792.6094,35.0469 Q792.875,35.2969 792.875,35.6406 Q792.875,35.9844 792.5313,36.3906 Q792.0313,36.9688 791.2344,37.2969 Q790.1563,37.75 788.8594,37.75 Q787.3438,37.75 786.1406,37.125 Q785.1563,36.625 784.4688,35.5625 Q783.7813,34.4844 783.7813,33.2031 L783.7813,32.0469 Q783.7813,30.7188 784.3906,29.5781 Q785.0156,28.4219 786.1094,27.8125 Q787.2031,27.1875 788.4375,27.1875 Q789.1719,27.1875 789.8125,27.3594 Q790.4688,27.5156 791.0156,27.875 Z " fill="#000000"/><text fill="#000000" font-family="sans-serif" font-size="14" lengthAdjust="spacing" textLength="45" x="808.75" y="37.7285">Budget</text><line style="stroke:#181818;stroke-width:0.5;" x1="735.5" x2="894.5" y1="48" y2="48"/><text fill="#000000" font-family="sans-serif" font-size="14" lengthAdjust="spacing" textLength="99" x="740.5" y="66.5332">id : Optional[int]</text><text fill="#000000" font-family="sans-serif" font-size="14" lengthAdjust="spacing" textLength="58" x="740.5" y="84.1426">label : str</text><text fill="#000000" font-family="sans-serif" font-size="14" lengthAdjust="spacing" textLength="149" x="740.5" y="101.752">lines : List['BudgetLine']</text><text fill="#000000" font-family="sans-serif" font-size="14" lengthAdjust="spacing" textLength="112" x="740.5" y="119.3613">period_end : date</text><text fill="#000000" font-family="sans-serif" font-size="14" lengthAdjust="spacing" textLength="116" x="740.5" y="136.9707">period_start : date</text><line style="stroke:#181818;stroke-width:0.5;" x1="735.5" x2="894.5" y1="144.0469" y2="144.0469"/></g><!--class pocketsage.models.budget.BudgetLine--><g id="elem_pocketsage.models.budget.BudgetLine"><rect codeLine="36" fill="#F1F1F1" height="153.6563" id="pocketsage.models.budget.BudgetLine" rx="2.5" ry="2.5" style="stroke:#181818;stroke-width:0.5;" width="157" x="930.5" y="7"/><ellipse cx="969.35" cy="23" fill="#ADD1B2" rx="11" ry="11" style="stroke:#181818;stroke-width:1.0;"/><path d="M972.1156,18.875 Q972.2719,18.6563 972.4594,18.5469 Q972.6469,18.4375 972.8656,18.4375 Q973.2406,18.4375 973.475,18.7031 Q973.7094,18.9531 973.7094,19.5625 L973.7094,21.0156 Q973.7094,21.625 973.475,21.8906 Q973.2406,22.1563 972.8656,22.1563 Q972.5219,22.1563 972.3188,21.9531 Q972.1156,21.7656 972.0063,21.25 Q971.9594,20.8906 971.7719,20.7031 Q971.4438,20.3281 970.8344,20.1094 Q970.225,19.8906 969.6,19.8906 Q968.8344,19.8906 968.1938,20.2188 Q967.5688,20.5469 967.0688,21.2969 Q966.5844,22.0469 966.5844,23.0781 L966.5844,24.1719 Q966.5844,25.4063 967.475,26.2344 Q968.3656,27.0469 969.9594,27.0469 Q970.8969,27.0469 971.5531,26.7969 Q971.9438,26.6406 972.3656,26.2031 Q972.6313,25.9375 972.7719,25.8594 Q972.9281,25.7813 973.1313,25.7813 Q973.4594,25.7813 973.7094,26.0469 Q973.975,26.2969 973.975,26.6406 Q973.975,26.9844 973.6313,27.3906 Q973.1313,27.9688 972.3344,28.2969 Q971.2563,28.75 969.9594,28.75 Q968.4438,28.75 967.2406,28.125 Q966.2563,27.625 965.5688,26.5625 Q964.8813,25.4844 964.8813,24.2031 L964.8813,23.0469 Q964.8813,21.7188 965.4906,20.5781 Q966.1156,19.4219 967.2094,18.8125 Q968.3031,18.1875 969.5375,18.1875 Q970.2719,18.1875 970.9125,18.3594 Q971.5688,18.5156 972.1156,18.875 Z " fill="#000000"/><text fill="#000000" font-family="sans-serif" font-size="14" lengthAdjust="spacing" textLength="72" x="988.65" y="28.7285">BudgetLine</text><line style="stroke:#181818;stroke-width:0.5;" x1="931.5" x2="1086.5" y1="39" y2="39"/><text fill="#000000" font-family="sans-serif" font-size="14" lengthAdjust="spacing" textLength="72" x="936.5" y="57.5332">budget : str</text><text fill="#000000" font-family="sans-serif" font-size="14" lengthAdjust="spacing" textLength="90" x="936.5" y="75.1426">budget_id : int</text><text fill="#000000" font-family="sans-serif" font-size="14" lengthAdjust="spacing" textLength="101" x="936.5" y="92.752">category_id : int</text><text fill="#000000" font-family="sans-serif" font-size="14" lengthAdjust="spacing" textLength="99" x="936.5" y="110.3613">id : Optional[int]</text><text fill="#000000" font-family="sans-serif" font-size="14" lengthAdjust="spacing" textLength="145" x="936.5" y="127.9707">planned_amount : float</text><text fill="#000000" font-family="sans-serif" font-size="14" lengthAdjust="spacing" textLength="145" x="936.5" y="145.5801">rollover_enabled : bool</text><line style="stroke:#181818;stroke-width:0.5;" x1="931.5" x2="1086.5" y1="152.6563" y2="152.6563"/></g><!--class pocketsage.services.budgeting.BudgetRepository--><g id="elem_pocketsage.services.budgeting.BudgetRepository"><rect codeLine="44" fill="#F1F1F1" height="83.2188" id="pocketsage.services.budgeting.BudgetRepository" rx="2.5" ry="2.5" style="stroke:#181818;stroke-width:0.5;" width="300" x="1123" y="42.5"/><ellipse cx="1212.25" cy="58.5" fill="#ADD1B2" rx="11" ry="11" style="stroke:#181818;stroke-width:1.0;"/><path d="M1215.0156,54.375 Q1215.1719,54.1563 1215.3594,54.0469 Q1215.5469,53.9375 1215.7656,53.9375 Q1216.1406,53.9375 1216.375,54.2031 Q1216.6094,54.4531 1216.6094,55.0625 L1216.6094,56.5156 Q1216.6094,57.125 1216.375,57.3906 Q1216.1406,57.6563 1215.7656,57.6563 Q1215.4219,57.6563 1215.2188,57.4531 Q1215.0156,57.2656 1214.9063,56.75 Q1214.8594,56.3906 1214.6719,56.2031 Q1214.3438,55.8281 1213.7344,55.6094 Q1213.125,55.3906 1212.5,55.3906 Q1211.7344,55.3906 1211.0938,55.7188 Q1210.4688,56.0469 1209.9688,56.7969 Q1209.4844,57.5469 1209.4844,58.5781 L1209.4844,59.6719 Q1209.4844,60.9063 1210.375,61.7344 Q1211.2656,62.5469 1212.8594,62.5469 Q1213.7969,62.5469 1214.4531,62.2969 Q1214.8438,62.1406 1215.2656,61.7031 Q1215.5313,61.4375 1215.6719,61.3594 Q1215.8281,61.2813 1216.0313,61.2813 Q1216.3594,61.2813 1216.6094,61.5469 Q1216.875,61.7969 1216.875,62.1406 Q1216.875,62.4844 1216.5313,62.8906 Q1216.0313,63.4688 1215.2344,63.7969 Q1214.1563,64.25 1212.8594,64.25 Q1211.3438,64.25 1210.1406,63.625 Q1209.1563,63.125 1208.4688,62.0625 Q1207.7813,60.9844 1207.7813,59.7031 L1207.7813,58.5469 Q1207.7813,57.2188 1208.3906,56.0781 Q1209.0156,54.9219 1210.1094,54.3125 Q1211.2031,53.6875 1212.4375,53.6875 Q1213.1719,53.6875 1213.8125,53.8594 Q1214.4688,54.0156 1215.0156,54.375 Z " fill="#000000"/><text fill="#000000" font-family="sans-serif" font-size="14" lengthAdjust="spacing" textLength="113" x="1232.75" y="64.2285">BudgetRepository</text><line style="stroke:#181818;stroke-width:0.5;" x1="1124" x2="1422" y1="74.5" y2="74.5"/><line style="stroke:#181818;stroke-width:0.5;" x1="1124" x2="1422" y1="82.5" y2="82.5"/><text fill="#000000" font-family="sans-serif" font-size="14" lengthAdjust="spacing" textLength="260" x="1129" y="101.0332">actual_spend() -&gt; Iterable[tuple[int, float]]</text><text fill="#000000" font-family="sans-serif" font-size="14" lengthAdjust="spacing" textLength="288" x="1129" y="118.6426">planned_amounts() -&gt; Iterable[tuple[int, float]]</text></g><!--class pocketsage.services.budgeting.BudgetVariance--><g id="elem_pocketsage.services.budgeting.BudgetVariance"><rect codeLine="48" fill="#F1F1F1" height="118.4375" id="pocketsage.services.budgeting.BudgetVariance" rx="2.5" ry="2.5" style="stroke:#181818;stroke-width:0.5;" width="133" x="116.5" y="274"/><ellipse cx="131.5" cy="290" fill="#ADD1B2" rx="11" ry="11" style="stroke:#181818;stroke-width:1.0;"/><path d="M134.2656,285.875 Q134.4219,285.6563 134.6094,285.5469 Q134.7969,285.4375 135.0156,285.4375 Q135.3906,285.4375 135.625,285.7031 Q135.8594,285.9531 135.8594,286.5625 L135.8594,288.0156 Q135.8594,288.625 135.625,288.8906 Q135.3906,289.1563 135.0156,289.1563 Q134.6719,289.1563 134.4688,288.9531 Q134.2656,288.7656 134.1563,288.25 Q134.1094,287.8906 133.9219,287.7031 Q133.5938,287.3281 132.9844,287.1094 Q132.375,286.8906 131.75,286.8906 Q130.9844,286.8906 130.3438,287.2188 Q129.7188,287.5469 129.2188,288.2969 Q128.7344,289.0469 128.7344,290.0781 L128.7344,291.1719 Q128.7344,292.4063 129.625,293.2344 Q130.5156,294.0469 132.1094,294.0469 Q133.0469,294.0469 133.7031,293.7969 Q134.0938,293.6406 134.5156,293.2031 Q134.7813,292.9375 134.9219,292.8594 Q135.0781,292.7813 135.2813,292.7813 Q135.6094,292.7813 135.8594,293.0469 Q136.125,293.2969 136.125,293.6406 Q136.125,293.9844 135.7813,294.3906 Q135.2813,294.9688 134.4844,295.2969 Q133.4063,295.75 132.1094,295.75 Q130.5938,295.75 129.3906,295.125 Q128.4063,294.625 127.7188,293.5625 Q127.0313,292.4844 127.0313,291.2031 L127.0313,290.0469 Q127.0313,288.7188 127.6406,287.5781 Q128.2656,286.4219 129.3594,285.8125 Q130.4531,285.1875 131.6875,285.1875 Q132.4219,285.1875 133.0625,285.3594 Q133.7188,285.5156 134.2656,285.875 Z " fill="#000000"/><text fill="#000000" font-family="sans-serif" font-size="14" lengthAdjust="spacing" textLength="101" x="145.5" y="295.7285">BudgetVariance</text><line style="stroke:#181818;stroke-width:0.5;" x1="117.5" x2="248.5" y1="306" y2="306"/><text fill="#000000" font-family="sans-serif" font-size="14" lengthAdjust="spacing" textLength="77" x="122.5" y="324.5332">actual : float</text><text fill="#000000" font-family="sans-serif" font-size="14" lengthAdjust="spacing" textLength="101" x="122.5" y="342.1426">category_id : int</text><text fill="#000000" font-family="sans-serif" font-size="14" lengthAdjust="spacing" textLength="70" x="122.5" y="359.752">delta : float</text><text fill="#000000" font-family="sans-serif" font-size="14" lengthAdjust="spacing" textLength="90" x="122.5" y="377.3613">planned : float</text><line style="stroke:#181818;stroke-width:0.5;" x1="117.5" x2="248.5" y1="384.4375" y2="384.4375"/></g><!--class pocketsage.services.watcher.CSVImporter--><g id="elem_pocketsage.services.watcher.CSVImporter"><rect codeLine="54" fill="#F1F1F1" height="48" id="pocketsage.services.watcher.CSVImporter" rx="2.5" ry="2.5" style="stroke:#181818;stroke-width:0.5;" width="112" x="285" y="309"/><ellipse cx="300" cy="325" fill="#ADD1B2" rx="11" ry="11" style="stroke:#181818;stroke-width:1.0;"/><path d="M302.7656,320.875 Q302.9219,320.6563 303.1094,320.5469 Q303.2969,320.4375 303.5156,320.4375 Q303.8906,320.4375 304.125,320.7031 Q304.3594,320.9531 304.3594,321.5625 L304.3594,323.0156 Q304.3594,323.625 304.125,323.8906 Q303.8906,324.1563 303.5156,324.1563 Q303.1719,324.1563 302.9688,323.9531 Q302.7656,323.7656 302.6563,323.25 Q302.6094,322.8906 302.4219,322.7031 Q302.0938,322.3281 301.4844,322.1094 Q300.875,321.8906 300.25,321.8906 Q299.4844,321.8906 298.8438,322.2188 Q298.2188,322.5469 297.7188,323.2969 Q297.2344,324.0469 297.2344,325.0781 L297.2344,326.1719 Q297.2344,327.4063 298.125,328.2344 Q299.0156,329.0469 300.6094,329.0469 Q301.5469,329.0469 302.2031,328.7969 Q302.5938,328.6406 303.0156,328.2031 Q303.2813,327.9375 303.4219,327.8594 Q303.5781,327.7813 303.7813,327.7813 Q304.1094,327.7813 304.3594,328.0469 Q304.625,328.2969 304.625,328.6406 Q304.625,328.9844 304.2813,329.3906 Q303.7813,329.9688 302.9844,330.2969 Q301.9063,330.75 300.6094,330.75 Q299.0938,330.75 297.8906,330.125 Q296.9063,329.625 296.2188,328.5625 Q295.5313,327.4844 295.5313,326.2031 L295.5313,325.0469 Q295.5313,323.7188 296.1406,322.5781 Q296.7656,321.4219 297.8594,320.8125 Q298.9531,320.1875 300.1875,320.1875 Q300.9219,320.1875 301.5625,320.3594 Q302.2188,320.5156 302.7656,320.875 Z " fill="#000000"/><text fill="#000000" font-family="sans-serif" font-size="14" lengthAdjust="spacing" textLength="80" x="314" y="330.7285">CSVImporter</text><line style="stroke:#181818;stroke-width:0.5;" x1="286" x2="396" y1="341" y2="341"/><line style="stroke:#181818;stroke-width:0.5;" x1="286" x2="396" y1="349" y2="349"/></g><!--class pocketsage.models.category.Category--><g id="elem_pocketsage.models.category.Category"><rect codeLine="56" fill="#F1F1F1" height="153.6563" id="pocketsage.models.category.Category" rx="2.5" ry="2.5" style="stroke:#181818;stroke-width:0.5;" width="212" x="432" y="256"/><ellipse cx="504.75" cy="272" fill="#ADD1B2" rx="11" ry="11" style="stroke:#181818;stroke-width:1.0;"/><path d="M507.5156,267.875 Q507.6719,267.6563 507.8594,267.5469 Q508.0469,267.4375 508.2656,267.4375 Q508.6406,267.4375 508.875,267.7031 Q509.1094,267.9531 509.1094,268.5625 L509.1094,270.0156 Q509.1094,270.625 508.875,270.8906 Q508.6406,271.1563 508.2656,271.1563 Q507.9219,271.1563 507.7188,270.9531 Q507.5156,270.7656 507.4063,270.25 Q507.3594,269.8906 507.1719,269.7031 Q506.8438,269.3281 506.2344,269.1094 Q505.625,268.8906 505,268.8906 Q504.2344,268.8906 503.5938,269.2188 Q502.9688,269.5469 502.4688,270.2969 Q501.9844,271.0469 501.9844,272.0781 L501.9844,273.1719 Q501.9844,274.4063 502.875,275.2344 Q503.7656,276.0469 505.3594,276.0469 Q506.2969,276.0469 506.9531,275.7969 Q507.3438,275.6406 507.7656,275.2031 Q508.0313,274.9375 508.1719,274.8594 Q508.3281,274.7813 508.5313,274.7813 Q508.8594,274.7813 509.1094,275.0469 Q509.375,275.2969 509.375,275.6406 Q509.375,275.9844 509.0313,276.3906 Q508.5313,276.9688 507.7344,277.2969 Q506.6563,277.75 505.3594,277.75 Q503.8438,277.75 502.6406,277.125 Q501.6563,276.625 500.9688,275.5625 Q500.2813,274.4844 500.2813,273.2031 L500.2813,272.0469 Q500.2813,270.7188 500.8906,269.5781 Q501.5156,268.4219 502.6094,267.8125 Q503.7031,267.1875 504.9375,267.1875 Q505.6719,267.1875 506.3125,267.3594 Q506.9688,267.5156 507.5156,267.875 Z " fill="#000000"/><text fill="#000000" font-family="sans-serif" font-size="14" lengthAdjust="spacing" textLength="58" x="525.25" y="277.7285">Category</text><line style="stroke:#181818;stroke-width:0.5;" x1="433" x2="643" y1="288" y2="288"/><text fill="#000000" font-family="sans-serif" font-size="14" lengthAdjust="spacing" textLength="118" x="438" y="306.5332">category_type : str</text><text fill="#000000" font-family="sans-serif" font-size="14" lengthAdjust="spacing" textLength="120" x="438" y="324.1426">color : Optional[str]</text><text fill="#000000" font-family="sans-serif" font-size="14" lengthAdjust="spacing" textLength="99" x="438" y="341.752">id : Optional[int]</text><text fill="#000000" font-family="sans-serif" font-size="14" lengthAdjust="spacing" textLength="63" x="438" y="359.3613">name : str</text><text fill="#000000" font-family="sans-serif" font-size="14" lengthAdjust="spacing" textLength="54" x="438" y="376.9707">slug : str</text><text fill="#000000" font-family="sans-serif" font-size="14" lengthAdjust="spacing" textLength="200" x="438" y="394.5801">transactions : List['Transaction']</text><line style="stroke:#181818;stroke-width:0.5;" x1="433" x2="643" y1="401.6563" y2="401.6563"/></g><!--class pocketsage.services.import_csv.ColumnMapping--><g id="elem_pocketsage.services.import_csv.ColumnMapping"><rect codeLine="64" fill="#F1F1F1" height="188.875" id="pocketsage.services.import_csv.ColumnMapping" rx="2.5" ry="2.5" style="stroke:#181818;stroke-width:0.5;" width="177" x="679.5" y="238.5"/><ellipse cx="713.85" cy="254.5" fill="#ADD1B2" rx="11" ry="11" style="stroke:#181818;stroke-width:1.0;"/><path d="M716.6156,250.375 Q716.7719,250.1563 716.9594,250.0469 Q717.1469,249.9375 717.3656,249.9375 Q717.7406,249.9375 717.975,250.2031 Q718.2094,250.4531 718.2094,251.0625 L718.2094,252.5156 Q718.2094,253.125 717.975,253.3906 Q717.7406,253.6563 717.3656,253.6563 Q717.0219,253.6563 716.8188,253.4531 Q716.6156,253.2656 716.5063,252.75 Q716.4594,252.3906 716.2719,252.2031 Q715.9438,251.8281 715.3344,251.6094 Q714.725,251.3906 714.1,251.3906 Q713.3344,251.3906 712.6938,251.7188 Q712.0688,252.0469 711.5688,252.7969 Q711.0844,253.5469 711.0844,254.5781 L711.0844,255.6719 Q711.0844,256.9063 711.975,257.7344 Q712.8656,258.5469 714.4594,258.5469 Q715.3969,258.5469 716.0531,258.2969 Q716.4438,258.1406 716.8656,257.7031 Q717.1313,257.4375 717.2719,257.3594 Q717.4281,257.2813 717.6313,257.2813 Q717.9594,257.2813 718.2094,257.5469 Q718.475,257.7969 718.475,258.1406 Q718.475,258.4844 718.1313,258.8906 Q717.6313,259.4688 716.8344,259.7969 Q715.7563,260.25 714.4594,260.25 Q712.9438,260.25 711.7406,259.625 Q710.7563,259.125 710.0688,258.0625 Q709.3813,256.9844 709.3813,255.7031 L709.3813,254.5469 Q709.3813,253.2188 709.9906,252.0781 Q710.6156,250.9219 711.7094,250.3125 Q712.8031,249.6875 714.0375,249.6875 Q714.7719,249.6875 715.4125,249.8594 Q716.0688,250.0156 716.6156,250.375 Z " fill="#000000"/><text fill="#000000" font-family="sans-serif" font-size="14" lengthAdjust="spacing" textLength="102" x="732.15" y="260.2285">ColumnMapping</text><line style="stroke:#181818;stroke-width:0.5;" x1="680.5" x2="855.5" y1="270.5" y2="270.5"/><text fill="#000000" font-family="sans-serif" font-size="14" lengthAdjust="spacing" textLength="141" x="685.5" y="289.0332">account_id : str | None</text><text fill="#000000" font-family="sans-serif" font-size="14" lengthAdjust="spacing" textLength="165" x="685.5" y="306.6426">account_name : str | None</text><text fill="#000000" font-family="sans-serif" font-size="14" lengthAdjust="spacing" textLength="75" x="685.5" y="324.252">amount : str</text><text fill="#000000" font-family="sans-serif" font-size="14" lengthAdjust="spacing" textLength="127" x="685.5" y="341.8613">category : str | None</text><text fill="#000000" font-family="sans-serif" font-size="14" lengthAdjust="spacing" textLength="127" x="685.5" y="359.4707">currency : str | None</text><text fill="#000000" font-family="sans-serif" font-size="14" lengthAdjust="spacing" textLength="141" x="685.5" y="377.0801">external_id : str | None</text><text fill="#000000" font-family="sans-serif" font-size="14" lengthAdjust="spacing" textLength="110" x="685.5" y="394.6895">memo : str | None</text><text fill="#000000" font-family="sans-serif" font-size="14" lengthAdjust="spacing" textLength="104" x="685.5" y="412.2988">occurred_at : str</text><line style="stroke:#181818;stroke-width:0.5;" x1="680.5" x2="855.5" y1="419.375" y2="419.375"/></g><!--class pocketsage.services.debts.DebtAccount--><g id="elem_pocketsage.services.debts.DebtAccount"><rect codeLine="74" fill="#F1F1F1" height="118.4375" id="pocketsage.services.debts.DebtAccount" rx="2.5" ry="2.5" style="stroke:#181818;stroke-width:0.5;" width="168" x="892" y="274"/><ellipse cx="931.75" cy="290" fill="#ADD1B2" rx="11" ry="11" style="stroke:#181818;stroke-width:1.0;"/><path d="M934.5156,285.875 Q934.6719,285.6563 934.8594,285.5469 Q935.0469,285.4375 935.2656,285.4375 Q935.6406,285.4375 935.875,285.7031 Q936.1094,285.9531 936.1094,286.5625 L936.1094,288.0156 Q936.1094,288.625 935.875,288.8906 Q935.6406,289.1563 935.2656,289.1563 Q934.9219,289.1563 934.7188,288.9531 Q934.5156,288.7656 934.4063,288.25 Q934.3594,287.8906 934.1719,287.7031 Q933.8438,287.3281 933.2344,287.1094 Q932.625,286.8906 932,286.8906 Q931.2344,286.8906 930.5938,287.2188 Q929.9688,287.5469 929.4688,288.2969 Q928.9844,289.0469 928.9844,290.0781 L928.9844,291.1719 Q928.9844,292.4063 929.875,293.2344 Q930.7656,294.0469 932.3594,294.0469 Q933.2969,294.0469 933.9531,293.7969 Q934.3438,293.6406 934.7656,293.2031 Q935.0313,292.9375 935.1719,292.8594 Q935.3281,292.7813 935.5313,292.7813 Q935.8594,292.7813 936.1094,293.0469 Q936.375,293.2969 936.375,293.6406 Q936.375,293.9844 936.0313,294.3906 Q935.5313,294.9688 934.7344,295.2969 Q933.6563,295.75 932.3594,295.75 Q930.8438,295.75 929.6406,295.125 Q928.6563,294.625 927.9688,293.5625 Q927.2813,292.4844 927.2813,291.2031 L927.2813,290.0469 Q927.2813,288.7188 927.8906,287.5781 Q928.5156,286.4219 929.6094,285.8125 Q930.7031,285.1875 931.9375,285.1875 Q932.6719,285.1875 933.3125,285.3594 Q933.9688,285.5156 934.5156,285.875 Z " fill="#000000"/><text fill="#000000" font-family="sans-serif" font-size="14" lengthAdjust="spacing" textLength="81" x="951.25" y="295.7285">DebtAccount</text><line style="stroke:#181818;stroke-width:0.5;" x1="893" x2="1059" y1="306" y2="306"/><text fill="#000000" font-family="sans-serif" font-size="14" lengthAdjust="spacing" textLength="60" x="898" y="324.5332">apr : float</text><text fill="#000000" font-family="sans-serif" font-size="14" lengthAdjust="spacing" textLength="89" x="898" y="342.1426">balance : float</text><text fill="#000000" font-family="sans-serif" font-size="14" lengthAdjust="spacing" textLength="38" x="898" y="359.752">id : int</text><text fill="#000000" font-family="sans-serif" font-size="14" lengthAdjust="spacing" textLength="156" x="898" y="377.3613">minimum_payment : float</text><line style="stroke:#181818;stroke-width:0.5;" x1="893" x2="1059" y1="384.4375" y2="384.4375"/></g><!--class pocketsage.config.DevConfig--><g id="elem_pocketsage.config.DevConfig"><rect codeLine="80" fill="#F1F1F1" height="83.2188" id="pocketsage.config.DevConfig" rx="2.5" ry="2.5" style="stroke:#181818;stroke-width:0.5;" width="110" x="1458" y="42.5"/><ellipse cx="1478.4" cy="58.5" fill="#ADD1B2" rx="11" ry="11" style="stroke:#181818;stroke-width:1.0;"/><path d="M1481.1656,54.375 Q1481.3219,54.1563 1481.5094,54.0469 Q1481.6969,53.9375 1481.9156,53.9375 Q1482.2906,53.9375 1482.525,54.2031 Q1482.7594,54.4531 1482.7594,55.0625 L1482.7594,56.5156 Q1482.7594,57.125 1482.525,57.3906 Q1482.2906,57.6563 1481.9156,57.6563 Q1481.5719,57.6563 1481.3688,57.4531 Q1481.1656,57.2656 1481.0563,56.75 Q1481.0094,56.3906 1480.8219,56.2031 Q1480.4938,55.8281 1479.8844,55.6094 Q1479.275,55.3906 1478.65,55.3906 Q1477.8844,55.3906 1477.2438,55.7188 Q1476.6188,56.0469 1476.1188,56.7969 Q1475.6344,57.5469 1475.6344,58.5781 L1475.6344,59.6719 Q1475.6344,60.9063 1476.525,61.7344 Q1477.4156,62.5469 1479.0094,62.5469 Q1479.9469,62.5469 1480.6031,62.2969 Q1480.9938,62.1406 1481.4156,61.7031 Q1481.6813,61.4375 1481.8219,61.3594 Q1481.9781,61.2813 1482.1813,61.2813 Q1482.5094,61.2813 1482.7594,61.5469 Q1483.025,61.7969 1483.025,62.1406 Q1483.025,62.4844 1482.6813,62.8906 Q1482.1813,63.4688 1481.3844,63.7969 Q1480.3063,64.25 1479.0094,64.25 Q1477.4938,64.25 1476.2906,63.625 Q1475.3063,63.125 1474.6188,62.0625 Q1473.9313,60.9844 1473.9313,59.7031 L1473.9313,58.5469 Q1473.9313,57.2188 1474.5406,56.0781 Q1475.1656,54.9219 1476.2594,54.3125 Q1477.3531,53.6875 1478.5875,53.6875 Q1479.3219,53.6875 1479.9625,53.8594 Q1480.6188,54.0156 1481.1656,54.375 Z " fill="#000000"/><text fill="#000000" font-family="sans-serif" font-size="14" lengthAdjust="spacing" textLength="66" x="1493.6" y="64.2285">DevConfig</text><line style="stroke:#181818;stroke-width:0.5;" x1="1459" x2="1567" y1="74.5" y2="74.5"/><text fill="#000000" font-family="sans-serif" font-size="14" lengthAdjust="spacing" textLength="87" x="1464" y="93.0332">DEBUG : bool</text><text fill="#000000" font-family="sans-serif" font-size="14" lengthAdjust="spacing" textLength="98" x="1464" y="110.6426">TESTING : bool</text><line style="stroke:#181818;stroke-width:0.5;" x1="1459" x2="1567" y1="117.7188" y2="117.7188"/></g><!--class pocketsage.models.habit.Habit--><g id="elem_pocketsage.models.habit.Habit"><rect codeLine="84" fill="#F1F1F1" height="153.6563" id="pocketsage.models.habit.Habit" rx="2.5" ry="2.5" style="stroke:#181818;stroke-width:0.5;" width="168" x="1095" y="256"/><ellipse cx="1158.75" cy="272" fill="#ADD1B2" rx="11" ry="11" style="stroke:#181818;stroke-width:1.0;"/><path d="M1161.5156,267.875 Q1161.6719,267.6563 1161.8594,267.5469 Q1162.0469,267.4375 1162.2656,267.4375 Q1162.6406,267.4375 1162.875,267.7031 Q1163.1094,267.9531 1163.1094,268.5625 L1163.1094,270.0156 Q1163.1094,270.625 1162.875,270.8906 Q1162.6406,271.1563 1162.2656,271.1563 Q1161.9219,271.1563 1161.7188,270.9531 Q1161.5156,270.7656 1161.4063,270.25 Q1161.3594,269.8906 1161.1719,269.7031 Q1160.8438,269.3281 1160.2344,269.1094 Q1159.625,268.8906 1159,268.8906 Q1158.2344,268.8906 1157.5938,269.2188 Q1156.9688,269.5469 1156.4688,270.2969 Q1155.9844,271.0469 1155.9844,272.0781 L1155.9844,273.1719 Q1155.9844,274.4063 1156.875,275.2344 Q1157.7656,276.0469 1159.3594,276.0469 Q1160.2969,276.0469 1160.9531,275.7969 Q1161.3438,275.6406 1161.7656,275.2031 Q1162.0313,274.9375 1162.1719,274.8594 Q1162.3281,274.7813 1162.5313,274.7813 Q1162.8594,274.7813 1163.1094,275.0469 Q1163.375,275.2969 1163.375,275.6406 Q1163.375,275.9844 1163.0313,276.3906 Q1162.5313,276.9688 1161.7344,277.2969 Q1160.6563,277.75 1159.3594,277.75 Q1157.8438,277.75 1156.6406,277.125 Q1155.6563,276.625 1154.9688,275.5625 Q1154.2813,274.4844 1154.2813,273.2031 L1154.2813,272.0469 Q1154.2813,270.7188 1154.8906,269.5781 Q1155.5156,268.4219 1156.6094,267.8125 Q1157.7031,267.1875 1158.9375,267.1875 Q1159.6719,267.1875 1160.3125,267.3594 Q1160.9688,267.5156 1161.5156,267.875 Z " fill="#000000"/><text fill="#000000" font-family="sans-serif" font-size="14" lengthAdjust="spacing" textLength="32" x="1179.25" y="277.7285">Habit</text><line style="stroke:#181818;stroke-width:0.5;" x1="1096" x2="1262" y1="288" y2="288"/><text fill="#000000" font-family="sans-serif" font-size="14" lengthAdjust="spacing" textLength="82" x="1101" y="306.5332">cadence : str</text><text fill="#000000" font-family="sans-serif" font-size="14" lengthAdjust="spacing" textLength="97" x="1101" y="324.1426">description : str</text><text fill="#000000" font-family="sans-serif" font-size="14" lengthAdjust="spacing" textLength="156" x="1101" y="341.752">entries : List['HabitEntry']</text><text fill="#000000" font-family="sans-serif" font-size="14" lengthAdjust="spacing" textLength="99" x="1101" y="359.3613">id : Optional[int]</text><text fill="#000000" font-family="sans-serif" font-size="14" lengthAdjust="spacing" textLength="94" x="1101" y="376.9707">is_active : bool</text><text fill="#000000" font-family="sans-serif" font-size="14" lengthAdjust="spacing" textLength="63" x="1101" y="394.5801">name : str</text><line style="stroke:#181818;stroke-width:0.5;" x1="1096" x2="1262" y1="401.6563" y2="401.6563"/></g><!--class pocketsage.models.habit.HabitEntry--><g id="elem_pocketsage.models.habit.HabitEntry"><rect codeLine="92" fill="#F1F1F1" height="118.4375" id="pocketsage.models.habit.HabitEntry" rx="2.5" ry="2.5" style="stroke:#181818;stroke-width:0.5;" width="132" x="117" y="549"/><ellipse cx="147.75" cy="565" fill="#ADD1B2" rx="11" ry="11" style="stroke:#181818;stroke-width:1.0;"/><path d="M150.5156,560.875 Q150.6719,560.6563 150.8594,560.5469 Q151.0469,560.4375 151.2656,560.4375 Q151.6406,560.4375 151.875,560.7031 Q152.1094,560.9531 152.1094,561.5625 L152.1094,563.0156 Q152.1094,563.625 151.875,563.8906 Q151.6406,564.1563 151.2656,564.1563 Q150.9219,564.1563 150.7188,563.9531 Q150.5156,563.7656 150.4063,563.25 Q150.3594,562.8906 150.1719,562.7031 Q149.8438,562.3281 149.2344,562.1094 Q148.625,561.8906 148,561.8906 Q147.2344,561.8906 146.5938,562.2188 Q145.9688,562.5469 145.4688,563.2969 Q144.9844,564.0469 144.9844,565.0781 L144.9844,566.1719 Q144.9844,567.4063 145.875,568.2344 Q146.7656,569.0469 148.3594,569.0469 Q149.2969,569.0469 149.9531,568.7969 Q150.3438,568.6406 150.7656,568.2031 Q151.0313,567.9375 151.1719,567.8594 Q151.3281,567.7813 151.5313,567.7813 Q151.8594,567.7813 152.1094,568.0469 Q152.375,568.2969 152.375,568.6406 Q152.375,568.9844 152.0313,569.3906 Q151.5313,569.9688 150.7344,570.2969 Q149.6563,570.75 148.3594,570.75 Q146.8438,570.75 145.6406,570.125 Q144.6563,569.625 143.9688,568.5625 Q143.2813,567.4844 143.2813,566.2031 L143.2813,565.0469 Q143.2813,563.7188 143.8906,562.5781 Q144.5156,561.4219 145.6094,560.8125 Q146.7031,560.1875 147.9375,560.1875 Q148.6719,560.1875 149.3125,560.3594 Q149.9688,560.5156 150.5156,560.875 Z " fill="#000000"/><text fill="#000000" font-family="sans-serif" font-size="14" lengthAdjust="spacing" textLength="65" x="165.25" y="570.7285">HabitEntry</text><line style="stroke:#181818;stroke-width:0.5;" x1="118" x2="248" y1="581" y2="581"/><text fill="#000000" font-family="sans-serif" font-size="14" lengthAdjust="spacing" textLength="59" x="123" y="599.5332">habit : str</text><text fill="#000000" font-family="sans-serif" font-size="14" lengthAdjust="spacing" textLength="77" x="123" y="617.1426">habit_id : int</text><text fill="#000000" font-family="sans-serif" font-size="14" lengthAdjust="spacing" textLength="120" x="123" y="634.752">occurred_on : date</text><text fill="#000000" font-family="sans-serif" font-size="14" lengthAdjust="spacing" textLength="61" x="123" y="652.3613">value : int</text><line style="stroke:#181818;stroke-width:0.5;" x1="118" x2="248" y1="659.4375" y2="659.4375"/></g><!--class pocketsage.blueprints.habits.forms.HabitForm--><g id="elem_pocketsage.blueprints.habits.forms.HabitForm"><rect codeLine="98" fill="#F1F1F1" height="118.4375" id="pocketsage.blueprints.habits.forms.HabitForm" rx="2.5" ry="2.5" style="stroke:#181818;stroke-width:0.5;" width="118" x="284" y="549"/><ellipse cx="308.45" cy="565" fill="#ADD1B2" rx="11" ry="11" style="stroke:#181818;stroke-width:1.0;"/><path d="M311.2156,560.875 Q311.3719,560.6563 311.5594,560.5469 Q311.7469,560.4375 311.9656,560.4375 Q312.3406,560.4375 312.575,560.7031 Q312.8094,560.9531 312.8094,561.5625 L312.8094,563.0156 Q312.8094,563.625 312.575,563.8906 Q312.3406,564.1563 311.9656,564.1563 Q311.6219,564.1563 311.4188,563.9531 Q311.2156,563.7656 311.1063,563.25 Q311.0594,562.8906 310.8719,562.7031 Q310.5438,562.3281 309.9344,562.1094 Q309.325,561.8906 308.7,561.8906 Q307.9344,561.8906 307.2938,562.2188 Q306.6688,562.5469 306.1688,563.2969 Q305.6844,564.0469 305.6844,565.0781 L305.6844,566.1719 Q305.6844,567.4063 306.575,568.2344 Q307.4656,569.0469 309.0594,569.0469 Q309.9969,569.0469 310.6531,568.7969 Q311.0438,568.6406 311.4656,568.2031 Q311.7313,567.9375 311.8719,567.8594 Q312.0281,567.7813 312.2313,567.7813 Q312.5594,567.7813 312.8094,568.0469 Q313.075,568.2969 313.075,568.6406 Q313.075,568.9844 312.7313,569.3906 Q312.2313,569.9688 311.4344,570.2969 Q310.3563,570.75 309.0594,570.75 Q307.5438,570.75 306.3406,570.125 Q305.3563,569.625 304.6688,568.5625 Q303.9813,567.4844 303.9813,566.2031 L303.9813,565.0469 Q303.9813,563.7188 304.5906,562.5781 Q305.2156,561.4219 306.3094,560.8125 Q307.4031,560.1875 308.6375,560.1875 Q309.3719,560.1875 310.0125,560.3594 Q310.6688,560.5156 311.2156,560.875 Z " fill="#000000"/><text fill="#000000" font-family="sans-serif" font-size="14" lengthAdjust="spacing" textLength="65" x="324.55" y="570.7285">HabitForm</text><line style="stroke:#181818;stroke-width:0.5;" x1="285" x2="401" y1="581" y2="581"/><text fill="#000000" font-family="sans-serif" font-size="14" lengthAdjust="spacing" textLength="82" x="290" y="599.5332">cadence : str</text><text fill="#000000" font-family="sans-serif" font-size="14" lengthAdjust="spacing" textLength="97" x="290" y="617.1426">description : str</text><text fill="#000000" font-family="sans-serif" font-size="14" lengthAdjust="spacing" textLength="63" x="290" y="634.752">name : str</text><line style="stroke:#181818;stroke-width:0.5;" x1="285" x2="401" y1="641.8281" y2="641.8281"/><text fill="#000000" font-family="sans-serif" font-size="14" font-style="italic" lengthAdjust="spacing" textLength="106" x="290" y="660.3613">validate() -&gt; bool</text></g><!--class pocketsage.blueprints.habits.repository.HabitsRepository--><g id="elem_pocketsage.blueprints.habits.repository.HabitsRepository"><rect codeLine="104" fill="#F1F1F1" height="100.8281" id="pocketsage.blueprints.habits.repository.HabitsRepository" rx="2.5" ry="2.5" style="stroke:#181818;stroke-width:0.5;" width="193" x="437.5" y="557.5"/><ellipse cx="476.8" cy="573.5" fill="#ADD1B2" rx="11" ry="11" style="stroke:#181818;stroke-width:1.0;"/><path d="M479.5656,569.375 Q479.7219,569.1563 479.9094,569.0469 Q480.0969,568.9375 480.3156,568.9375 Q480.6906,568.9375 480.925,569.2031 Q481.1594,569.4531 481.1594,570.0625 L481.1594,571.5156 Q481.1594,572.125 480.925,572.3906 Q480.6906,572.6563 480.3156,572.6563 Q479.9719,572.6563 479.7688,572.4531 Q479.5656,572.2656 479.4563,571.75 Q479.4094,571.3906 479.2219,571.2031 Q478.8938,570.8281 478.2844,570.6094 Q477.675,570.3906 477.05,570.3906 Q476.2844,570.3906 475.6438,570.7188 Q475.0188,571.0469 474.5188,571.7969 Q474.0344,572.5469 474.0344,573.5781 L474.0344,574.6719 Q474.0344,575.9063 474.925,576.7344 Q475.8156,577.5469 477.4094,577.5469 Q478.3469,577.5469 479.0031,577.2969 Q479.3938,577.1406 479.8156,576.7031 Q480.0813,576.4375 480.2219,576.3594 Q480.3781,576.2813 480.5813,576.2813 Q480.9094,576.2813 481.1594,576.5469 Q481.425,576.7969 481.425,577.1406 Q481.425,577.4844 481.0813,577.8906 Q480.5813,578.4688 479.7844,578.7969 Q478.7063,579.25 477.4094,579.25 Q475.8938,579.25 474.6906,578.625 Q473.7063,578.125 473.0188,577.0625 Q472.3313,575.9844 472.3313,574.7031 L472.3313,573.5469 Q472.3313,572.2188 472.9406,571.0781 Q473.5656,569.9219 474.6594,569.3125 Q475.7531,568.6875 476.9875,568.6875 Q477.7219,568.6875 478.3625,568.8594 Q479.0188,569.0156 479.5656,569.375 Z " fill="#000000"/><text fill="#000000" font-family="sans-serif" font-size="14" lengthAdjust="spacing" textLength="107" x="496.2" y="579.2285">HabitsRepository</text><line style="stroke:#181818;stroke-width:0.5;" x1="438.5" x2="629.5" y1="589.5" y2="589.5"/><line style="stroke:#181818;stroke-width:0.5;" x1="438.5" x2="629.5" y1="597.5" y2="597.5"/><text fill="#000000" font-family="sans-serif" font-size="14" lengthAdjust="spacing" textLength="142" x="443.5" y="616.0332">create_habit() -&gt; Habit</text><text fill="#000000" font-family="sans-serif" font-size="14" lengthAdjust="spacing" textLength="181" x="443.5" y="633.6426">list_habits() -&gt; Iterable[Habit]</text><text fill="#000000" font-family="sans-serif" font-size="14" lengthAdjust="spacing" textLength="177" x="443.5" y="651.252">record_entry() -&gt; HabitEntry</text></g><!--class pocketsage.models.portfolio.Holding--><g id="elem_pocketsage.models.portfolio.Holding"><rect codeLine="109" fill="#F1F1F1" height="188.875" id="pocketsage.models.portfolio.Holding" rx="2.5" ry="2.5" style="stroke:#181818;stroke-width:0.5;" width="214" x="666" y="513.5"/><ellipse cx="745.25" cy="529.5" fill="#ADD1B2" rx="11" ry="11" style="stroke:#181818;stroke-width:1.0;"/><path d="M748.0156,525.375 Q748.1719,525.1563 748.3594,525.0469 Q748.5469,524.9375 748.7656,524.9375 Q749.1406,524.9375 749.375,525.2031 Q749.6094,525.4531 749.6094,526.0625 L749.6094,527.5156 Q749.6094,528.125 749.375,528.3906 Q749.1406,528.6563 748.7656,528.6563 Q748.4219,528.6563 748.2188,528.4531 Q748.0156,528.2656 747.9063,527.75 Q747.8594,527.3906 747.6719,527.2031 Q747.3438,526.8281 746.7344,526.6094 Q746.125,526.3906 745.5,526.3906 Q744.7344,526.3906 744.0938,526.7188 Q743.4688,527.0469 742.9688,527.7969 Q742.4844,528.5469 742.4844,529.5781 L742.4844,530.6719 Q742.4844,531.9063 743.375,532.7344 Q744.2656,533.5469 745.8594,533.5469 Q746.7969,533.5469 747.4531,533.2969 Q747.8438,533.1406 748.2656,532.7031 Q748.5313,532.4375 748.6719,532.3594 Q748.8281,532.2813 749.0313,532.2813 Q749.3594,532.2813 749.6094,532.5469 Q749.875,532.7969 749.875,533.1406 Q749.875,533.4844 749.5313,533.8906 Q749.0313,534.4688 748.2344,534.7969 Q747.1563,535.25 745.8594,535.25 Q744.3438,535.25 743.1406,534.625 Q742.1563,534.125 741.4688,533.0625 Q740.7813,531.9844 740.7813,530.7031 L740.7813,529.5469 Q740.7813,528.2188 741.3906,527.0781 Q742.0156,525.9219 743.1094,525.3125 Q744.2031,524.6875 745.4375,524.6875 Q746.1719,524.6875 746.8125,524.8594 Q747.4688,525.0156 748.0156,525.375 Z " fill="#000000"/><text fill="#000000" font-family="sans-serif" font-size="14" lengthAdjust="spacing" textLength="47" x="765.75" y="535.2285">Holding</text><line style="stroke:#181818;stroke-width:0.5;" x1="667" x2="879" y1="545.5" y2="545.5"/><text fill="#000000" font-family="sans-serif" font-size="14" lengthAdjust="spacing" textLength="180" x="672" y="564.0332">account : Optional['Account']</text><text fill="#000000" font-family="sans-serif" font-size="14" lengthAdjust="spacing" textLength="157" x="672" y="581.6426">account_id : Optional[int]</text><text fill="#000000" font-family="sans-serif" font-size="14" lengthAdjust="spacing" textLength="202" x="672" y="599.252">acquired_at : Optional[datetime]</text><text fill="#000000" font-family="sans-serif" font-size="14" lengthAdjust="spacing" textLength="101" x="672" y="616.8613">avg_price : float</text><text fill="#000000" font-family="sans-serif" font-size="14" lengthAdjust="spacing" textLength="83" x="672" y="634.4707">currency : str</text><text fill="#000000" font-family="sans-serif" font-size="14" lengthAdjust="spacing" textLength="99" x="672" y="652.0801">id : Optional[int]</text><text fill="#000000" font-family="sans-serif" font-size="14" lengthAdjust="spacing" textLength="89" x="672" y="669.6895">quantity : float</text><text fill="#000000" font-family="sans-serif" font-size="14" lengthAdjust="spacing" textLength="72" x="672" y="687.2988">symbol : str</text><line style="stroke:#181818;stroke-width:0.5;" x1="667" x2="879" y1="694.375" y2="694.375"/></g><!--class pocketsage.services.jobs.Job--><g id="elem_pocketsage.services.jobs.Job"><rect codeLine="119" fill="#F1F1F1" height="206.4844" id="pocketsage.services.jobs.Job" rx="2.5" ry="2.5" style="stroke:#181818;stroke-width:0.5;" width="208" x="915" y="505"/><ellipse cx="1003.75" cy="521" fill="#ADD1B2" rx="11" ry="11" style="stroke:#181818;stroke-width:1.0;"/><path d="M1006.5156,516.875 Q1006.6719,516.6563 1006.8594,516.5469 Q1007.0469,516.4375 1007.2656,516.4375 Q1007.6406,516.4375 1007.875,516.7031 Q1008.1094,516.9531 1008.1094,517.5625 L1008.1094,519.0156 Q1008.1094,519.625 1007.875,519.8906 Q1007.6406,520.1563 1007.2656,520.1563 Q1006.9219,520.1563 1006.7188,519.9531 Q1006.5156,519.7656 1006.4063,519.25 Q1006.3594,518.8906 1006.1719,518.7031 Q1005.8438,518.3281 1005.2344,518.1094 Q1004.625,517.8906 1004,517.8906 Q1003.2344,517.8906 1002.5938,518.2188 Q1001.9688,518.5469 1001.4688,519.2969 Q1000.9844,520.0469 1000.9844,521.0781 L1000.9844,522.1719 Q1000.9844,523.4063 1001.875,524.2344 Q1002.7656,525.0469 1004.3594,525.0469 Q1005.2969,525.0469 1005.9531,524.7969 Q1006.3438,524.6406 1006.7656,524.2031 Q1007.0313,523.9375 1007.1719,523.8594 Q1007.3281,523.7813 1007.5313,523.7813 Q1007.8594,523.7813 1008.1094,524.0469 Q1008.375,524.2969 1008.375,524.6406 Q1008.375,524.9844 1008.0313,525.3906 Q1007.5313,525.9688 1006.7344,526.2969 Q1005.6563,526.75 1004.3594,526.75 Q1002.8438,526.75 1001.6406,526.125 Q1000.6563,525.625 999.9688,524.5625 Q999.2813,523.4844 999.2813,522.2031 L999.2813,521.0469 Q999.2813,519.7188 999.8906,518.5781 Q1000.5156,517.4219 1001.6094,516.8125 Q1002.7031,516.1875 1003.9375,516.1875 Q1004.6719,516.1875 1005.3125,516.3594 Q1005.9688,516.5156 1006.5156,516.875 Z " fill="#000000"/><text fill="#000000" font-family="sans-serif" font-size="14" lengthAdjust="spacing" textLength="22" x="1024.25" y="526.7285">Job</text><line style="stroke:#181818;stroke-width:0.5;" x1="916" x2="1122" y1="537" y2="537"/><text fill="#000000" font-family="sans-serif" font-size="14" lengthAdjust="spacing" textLength="134" x="921" y="555.5332">created_at : datetime</text><text fill="#000000" font-family="sans-serif" font-size="14" lengthAdjust="spacing" textLength="120" x="921" y="573.1426">error : Optional[str]</text><text fill="#000000" font-family="sans-serif" font-size="14" lengthAdjust="spacing" textLength="196" x="921" y="590.752">finished_at : Optional[datetime]</text><text fill="#000000" font-family="sans-serif" font-size="14" lengthAdjust="spacing" textLength="39" x="921" y="608.3613">id : str</text><text fill="#000000" font-family="sans-serif" font-size="14" lengthAdjust="spacing" textLength="151" x="921" y="625.9707">metadata : Dict[str, Any]</text><text fill="#000000" font-family="sans-serif" font-size="14" lengthAdjust="spacing" textLength="63" x="921" y="643.5801">name : str</text><text fill="#000000" font-family="sans-serif" font-size="14" lengthAdjust="spacing" textLength="191" x="921" y="661.1895">started_at : Optional[datetime]</text><text fill="#000000" font-family="sans-serif" font-size="14" lengthAdjust="spacing" textLength="66" x="921" y="678.7988">status : str</text><line style="stroke:#181818;stroke-width:0.5;" x1="916" x2="1122" y1="685.875" y2="685.875"/><text fill="#000000" font-family="sans-serif" font-size="14" lengthAdjust="spacing" textLength="153" x="921" y="704.4082">to_dict() -&gt; Dict[str, Any]</text></g><!--class pocketsage.blueprints.ledger.forms.LedgerEntryForm--><g id="elem_pocketsage.blueprints.ledger.forms.LedgerEntryForm"><rect codeLine="130" fill="#F1F1F1" height="136.0469" id="pocketsage.blueprints.ledger.forms.LedgerEntryForm" rx="2.5" ry="2.5" style="stroke:#181818;stroke-width:0.5;" width="198" x="1158" y="540"/><ellipse cx="1197.75" cy="556" fill="#ADD1B2" rx="11" ry="11" style="stroke:#181818;stroke-width:1.0;"/><path d="M1200.5156,551.875 Q1200.6719,551.6563 1200.8594,551.5469 Q1201.0469,551.4375 1201.2656,551.4375 Q1201.6406,551.4375 1201.875,551.7031 Q1202.1094,551.9531 1202.1094,552.5625 L1202.1094,554.0156 Q1202.1094,554.625 1201.875,554.8906 Q1201.6406,555.1563 1201.2656,555.1563 Q1200.9219,555.1563 1200.7188,554.9531 Q1200.5156,554.7656 1200.4063,554.25 Q1200.3594,553.8906 1200.1719,553.7031 Q1199.8438,553.3281 1199.2344,553.1094 Q1198.625,552.8906 1198,552.8906 Q1197.2344,552.8906 1196.5938,553.2188 Q1195.9688,553.5469 1195.4688,554.2969 Q1194.9844,555.0469 1194.9844,556.0781 L1194.9844,557.1719 Q1194.9844,558.4063 1195.875,559.2344 Q1196.7656,560.0469 1198.3594,560.0469 Q1199.2969,560.0469 1199.9531,559.7969 Q1200.3438,559.6406 1200.7656,559.2031 Q1201.0313,558.9375 1201.1719,558.8594 Q1201.3281,558.7813 1201.5313,558.7813 Q1201.8594,558.7813 1202.1094,559.0469 Q1202.375,559.2969 1202.375,559.6406 Q1202.375,559.9844 1202.0313,560.3906 Q1201.5313,560.9688 1200.7344,561.2969 Q1199.6563,561.75 1198.3594,561.75 Q1196.8438,561.75 1195.6406,561.125 Q1194.6563,560.625 1193.9688,559.5625 Q1193.2813,558.4844 1193.2813,557.2031 L1193.2813,556.0469 Q1193.2813,554.7188 1193.8906,553.5781 Q1194.5156,552.4219 1195.6094,551.8125 Q1196.7031,551.1875 1197.9375,551.1875 Q1198.6719,551.1875 1199.3125,551.3594 Q1199.9688,551.5156 1200.5156,551.875 Z " fill="#000000"/><text fill="#000000" font-family="sans-serif" font-size="14" lengthAdjust="spacing" textLength="111" x="1217.25" y="561.7285">LedgerEntryForm</text><line style="stroke:#181818;stroke-width:0.5;" x1="1159" x2="1355" y1="572" y2="572"/><text fill="#000000" font-family="sans-serif" font-size="14" lengthAdjust="spacing" textLength="130" x="1164" y="590.5332">amount : float | None</text><text fill="#000000" font-family="sans-serif" font-size="14" lengthAdjust="spacing" textLength="162" x="1164" y="608.1426">category_id : Optional[int]</text><text fill="#000000" font-family="sans-serif" font-size="14" lengthAdjust="spacing" textLength="66" x="1164" y="625.752">memo : str</text><text fill="#000000" font-family="sans-serif" font-size="14" lengthAdjust="spacing" textLength="186" x="1164" y="643.3613">occurred_at : datetime | None</text><line style="stroke:#181818;stroke-width:0.5;" x1="1159" x2="1355" y1="650.4375" y2="650.4375"/><text fill="#000000" font-family="sans-serif" font-size="14" font-style="italic" lengthAdjust="spacing" textLength="106" x="1164" y="668.9707">validate() -&gt; bool</text></g><!--class pocketsage.blueprints.ledger.repository.LedgerRepository--><g id="elem_pocketsage.blueprints.ledger.repository.LedgerRepository"><rect codeLine="137" fill="#F1F1F1" height="100.8281" id="pocketsage.blueprints.ledger.repository.LedgerRepository" rx="2.5" ry="2.5" style="stroke:#181818;stroke-width:0.5;" width="352" x="7" y="815"/><ellipse cx="122.25" cy="831" fill="#ADD1B2" rx="11" ry="11" style="stroke:#181818;stroke-width:1.0;"/><path d="M125.0156,826.875 Q125.1719,826.6563 125.3594,826.5469 Q125.5469,826.4375 125.7656,826.4375 Q126.1406,826.4375 126.375,826.7031 Q126.6094,826.9531 126.6094,827.5625 L126.6094,829.0156 Q126.6094,829.625 126.375,829.8906 Q126.1406,830.1563 125.7656,830.1563 Q125.4219,830.1563 125.2188,829.9531 Q125.0156,829.7656 124.9063,829.25 Q124.8594,828.8906 124.6719,828.7031 Q124.3438,828.3281 123.7344,828.1094 Q123.125,827.8906 122.5,827.8906 Q121.7344,827.8906 121.0938,828.2188 Q120.4688,828.5469 119.9688,829.2969 Q119.4844,830.0469 119.4844,831.0781 L119.4844,832.1719 Q119.4844,833.4063 120.375,834.2344 Q121.2656,835.0469 122.8594,835.0469 Q123.7969,835.0469 124.4531,834.7969 Q124.8438,834.6406 125.2656,834.2031 Q125.5313,833.9375 125.6719,833.8594 Q125.8281,833.7813 126.0313,833.7813 Q126.3594,833.7813 126.6094,834.0469 Q126.875,834.2969 126.875,834.6406 Q126.875,834.9844 126.5313,835.3906 Q126.0313,835.9688 125.2344,836.2969 Q124.1563,836.75 122.8594,836.75 Q121.3438,836.75 120.1406,836.125 Q119.1563,835.625 118.4688,834.5625 Q117.7813,833.4844 117.7813,832.2031 L117.7813,831.0469 Q117.7813,829.7188 118.3906,828.5781 Q119.0156,827.4219 120.1094,826.8125 Q121.2031,826.1875 122.4375,826.1875 Q123.1719,826.1875 123.8125,826.3594 Q124.4688,826.5156 125.0156,826.875 Z " fill="#000000"/><text fill="#000000" font-family="sans-serif" font-size="14" lengthAdjust="spacing" textLength="113" x="142.75" y="836.7285">LedgerRepository</text><line style="stroke:#181818;stroke-width:0.5;" x1="8" x2="358" y1="847" y2="847"/><line style="stroke:#181818;stroke-width:0.5;" x1="8" x2="358" y1="855" y2="855"/><text fill="#000000" font-family="sans-serif" font-size="14" lengthAdjust="spacing" textLength="224" x="13" y="873.5332">create_transaction() -&gt; Transaction</text><text fill="#000000" font-family="sans-serif" font-size="14" lengthAdjust="spacing" textLength="263" x="13" y="891.1426">list_transactions() -&gt; Iterable[Transaction]</text><text fill="#000000" font-family="sans-serif" font-size="14" lengthAdjust="spacing" textLength="340" x="13" y="908.752">update_transaction(transaction_id: int) -&gt; Transaction</text></g><!--class pocketsage.blueprints.liabilities.repository.LiabilitiesRepository--><g id="elem_pocketsage.blueprints.liabilities.repository.LiabilitiesRepository"><rect codeLine="142" fill="#F1F1F1" height="100.8281" id="pocketsage.blueprints.liabilities.repository.LiabilitiesRepository" rx="2.5" ry="2.5" style="stroke:#181818;stroke-width:0.5;" width="223" x="394.5" y="815"/><ellipse cx="438.75" cy="831" fill="#ADD1B2" rx="11" ry="11" style="stroke:#181818;stroke-width:1.0;"/><path d="M441.5156,826.875 Q441.6719,826.6563 441.8594,826.5469 Q442.0469,826.4375 442.2656,826.4375 Q442.6406,826.4375 442.875,826.7031 Q443.1094,826.9531 443.1094,827.5625 L443.1094,829.0156 Q443.1094,829.625 442.875,829.8906 Q442.6406,830.1563 442.2656,830.1563 Q441.9219,830.1563 441.7188,829.9531 Q441.5156,829.7656 441.4063,829.25 Q441.3594,828.8906 441.1719,828.7031 Q440.8438,828.3281 440.2344,828.1094 Q439.625,827.8906 439,827.8906 Q438.2344,827.8906 437.5938,828.2188 Q436.9688,828.5469 436.4688,829.2969 Q435.9844,830.0469 435.9844,831.0781 L435.9844,832.1719 Q435.9844,833.4063 436.875,834.2344 Q437.7656,835.0469 439.3594,835.0469 Q440.2969,835.0469 440.9531,834.7969 Q441.3438,834.6406 441.7656,834.2031 Q442.0313,833.9375 442.1719,833.8594 Q442.3281,833.7813 442.5313,833.7813 Q442.8594,833.7813 443.1094,834.0469 Q443.375,834.2969 443.375,834.6406 Q443.375,834.9844 443.0313,835.3906 Q442.5313,835.9688 441.7344,836.2969 Q440.6563,836.75 439.3594,836.75 Q437.8438,836.75 436.6406,836.125 Q435.6563,835.625 434.9688,834.5625 Q434.2813,833.4844 434.2813,832.2031 L434.2813,831.0469 Q434.2813,829.7188 434.8906,828.5781 Q435.5156,827.4219 436.6094,826.8125 Q437.7031,826.1875 438.9375,826.1875 Q439.6719,826.1875 440.3125,826.3594 Q440.9688,826.5156 441.5156,826.875 Z " fill="#000000"/><text fill="#000000" font-family="sans-serif" font-size="14" lengthAdjust="spacing" textLength="126" x="459.25" y="836.7285">LiabilitiesRepository</text><line style="stroke:#181818;stroke-width:0.5;" x1="395.5" x2="616.5" y1="847" y2="847"/><line style="stroke:#181818;stroke-width:0.5;" x1="395.5" x2="616.5" y1="855" y2="855"/><text fill="#000000" font-family="sans-serif" font-size="14" lengthAdjust="spacing" textLength="168" x="400.5" y="873.5332">create_liability() -&gt; Liability</text><text fill="#000000" font-family="sans-serif" font-size="14" lengthAdjust="spacing" textLength="211" x="400.5" y="891.1426">list_liabilities() -&gt; Iterable[Liability]</text><text fill="#000000" font-family="sans-serif" font-size="14" lengthAdjust="spacing" textLength="168" x="400.5" y="908.752">schedule_payoff() -&gt; None</text></g><!--class pocketsage.models.liability.Liability--><g id="elem_pocketsage.models.liability.Liability"><rect codeLine="147" fill="#F1F1F1" height="188.875" id="pocketsage.models.liability.Liability" rx="2.5" ry="2.5" style="stroke:#181818;stroke-width:0.5;" width="185" x="652.5" y="771"/><ellipse cx="717.25" cy="787" fill="#ADD1B2" rx="11" ry="11" style="stroke:#181818;stroke-width:1.0;"/><path d="M720.0156,782.875 Q720.1719,782.6563 720.3594,782.5469 Q720.5469,782.4375 720.7656,782.4375 Q721.1406,782.4375 721.375,782.7031 Q721.6094,782.9531 721.6094,783.5625 L721.6094,785.0156 Q721.6094,785.625 721.375,785.8906 Q721.1406,786.1563 720.7656,786.1563 Q720.4219,786.1563 720.2188,785.9531 Q720.0156,785.7656 719.9063,785.25 Q719.8594,784.8906 719.6719,784.7031 Q719.3438,784.3281 718.7344,784.1094 Q718.125,783.8906 717.5,783.8906 Q716.7344,783.8906 716.0938,784.2188 Q715.4688,784.5469 714.9688,785.2969 Q714.4844,786.0469 714.4844,787.0781 L714.4844,788.1719 Q714.4844,789.4063 715.375,790.2344 Q716.2656,791.0469 717.8594,791.0469 Q718.7969,791.0469 719.4531,790.7969 Q719.8438,790.6406 720.2656,790.2031 Q720.5313,789.9375 720.6719,789.8594 Q720.8281,789.7813 721.0313,789.7813 Q721.3594,789.7813 721.6094,790.0469 Q721.875,790.2969 721.875,790.6406 Q721.875,790.9844 721.5313,791.3906 Q721.0313,791.9688 720.2344,792.2969 Q719.1563,792.75 717.8594,792.75 Q716.3438,792.75 715.1406,792.125 Q714.1563,791.625 713.4688,790.5625 Q712.7813,789.4844 712.7813,788.2031 L712.7813,787.0469 Q712.7813,785.7188 713.3906,784.5781 Q714.0156,783.4219 715.1094,782.8125 Q716.2031,782.1875 717.4375,782.1875 Q718.1719,782.1875 718.8125,782.3594 Q719.4688,782.5156 720.0156,782.875 Z " fill="#000000"/><text fill="#000000" font-family="sans-serif" font-size="14" lengthAdjust="spacing" textLength="47" x="737.75" y="792.7285">Liability</text><line style="stroke:#181818;stroke-width:0.5;" x1="653.5" x2="836.5" y1="803" y2="803"/><text fill="#000000" font-family="sans-serif" font-size="14" lengthAdjust="spacing" textLength="60" x="658.5" y="821.5332">apr : float</text><text fill="#000000" font-family="sans-serif" font-size="14" lengthAdjust="spacing" textLength="89" x="658.5" y="839.1426">balance : float</text><text fill="#000000" font-family="sans-serif" font-size="14" lengthAdjust="spacing" textLength="82" x="658.5" y="856.752">due_day : int</text><text fill="#000000" font-family="sans-serif" font-size="14" lengthAdjust="spacing" textLength="99" x="658.5" y="874.3613">id : Optional[int]</text><text fill="#000000" font-family="sans-serif" font-size="14" lengthAdjust="spacing" textLength="156" x="658.5" y="891.9707">minimum_payment : float</text><text fill="#000000" font-family="sans-serif" font-size="14" lengthAdjust="spacing" textLength="63" x="658.5" y="909.5801">name : str</text><text fill="#000000" font-family="sans-serif" font-size="14" lengthAdjust="spacing" textLength="173" x="658.5" y="927.1895">opened_on : Optional[date]</text><text fill="#000000" font-family="sans-serif" font-size="14" lengthAdjust="spacing" textLength="126" x="658.5" y="944.7988">payoff_strategy : str</text><line style="stroke:#181818;stroke-width:0.5;" x1="653.5" x2="836.5" y1="951.875" y2="951.875"/></g><!--class pocketsage.blueprints.liabilities.forms.LiabilityForm--><g id="elem_pocketsage.blueprints.liabilities.forms.LiabilityForm"><rect codeLine="157" fill="#F1F1F1" height="136.0469" id="pocketsage.blueprints.liabilities.forms.LiabilityForm" rx="2.5" ry="2.5" style="stroke:#181818;stroke-width:0.5;" width="235" x="872.5" y="797.5"/><ellipse cx="945.75" cy="813.5" fill="#ADD1B2" rx="11" ry="11" style="stroke:#181818;stroke-width:1.0;"/><path d="M948.5156,809.375 Q948.6719,809.1563 948.8594,809.0469 Q949.0469,808.9375 949.2656,808.9375 Q949.6406,808.9375 949.875,809.2031 Q950.1094,809.4531 950.1094,810.0625 L950.1094,811.5156 Q950.1094,812.125 949.875,812.3906 Q949.6406,812.6563 949.2656,812.6563 Q948.9219,812.6563 948.7188,812.4531 Q948.5156,812.2656 948.4063,811.75 Q948.3594,811.3906 948.1719,811.2031 Q947.8438,810.8281 947.2344,810.6094 Q946.625,810.3906 946,810.3906 Q945.2344,810.3906 944.5938,810.7188 Q943.9688,811.0469 943.4688,811.7969 Q942.9844,812.5469 942.9844,813.5781 L942.9844,814.6719 Q942.9844,815.9063 943.875,816.7344 Q944.7656,817.5469 946.3594,817.5469 Q947.2969,817.5469 947.9531,817.2969 Q948.3438,817.1406 948.7656,816.7031 Q949.0313,816.4375 949.1719,816.3594 Q949.3281,816.2813 949.5313,816.2813 Q949.8594,816.2813 950.1094,816.5469 Q950.375,816.7969 950.375,817.1406 Q950.375,817.4844 950.0313,817.8906 Q949.5313,818.4688 948.7344,818.7969 Q947.6563,819.25 946.3594,819.25 Q944.8438,819.25 943.6406,818.625 Q942.6563,818.125 941.9688,817.0625 Q941.2813,815.9844 941.2813,814.7031 L941.2813,813.5469 Q941.2813,812.2188 941.8906,811.0781 Q942.5156,809.9219 943.6094,809.3125 Q944.7031,808.6875 945.9375,808.6875 Q946.6719,808.6875 947.3125,808.8594 Q947.9688,809.0156 948.5156,809.375 Z " fill="#000000"/><text fill="#000000" font-family="sans-serif" font-size="14" lengthAdjust="spacing" textLength="80" x="966.25" y="819.2285">LiabilityForm</text><line style="stroke:#181818;stroke-width:0.5;" x1="873.5" x2="1106.5" y1="829.5" y2="829.5"/><text fill="#000000" font-family="sans-serif" font-size="14" lengthAdjust="spacing" textLength="127" x="878.5" y="848.0332">apr : Decimal | None</text><text fill="#000000" font-family="sans-serif" font-size="14" lengthAdjust="spacing" textLength="156" x="878.5" y="865.6426">balance : Decimal | None</text><text fill="#000000" font-family="sans-serif" font-size="14" lengthAdjust="spacing" textLength="223" x="878.5" y="883.252">minimum_payment : Decimal | None</text><text fill="#000000" font-family="sans-serif" font-size="14" lengthAdjust="spacing" textLength="63" x="878.5" y="900.8613">name : str</text><line style="stroke:#181818;stroke-width:0.5;" x1="873.5" x2="1106.5" y1="907.9375" y2="907.9375"/><text fill="#000000" font-family="sans-serif" font-size="14" font-style="italic" lengthAdjust="spacing" textLength="106" x="878.5" y="926.4707">validate() -&gt; bool</text></g><!--class pocketsage.blueprints.portfolio.forms.PortfolioImportForm--><g id="elem_pocketsage.blueprints.portfolio.forms.PortfolioImportForm"><rect codeLine="164" fill="#F1F1F1" height="83.2188" id="pocketsage.blueprints.portfolio.forms.PortfolioImportForm" rx="2.5" ry="2.5" style="stroke:#181818;stroke-width:0.5;" width="156" x="1143" y="824"/><ellipse cx="1158" cy="840" fill="#ADD1B2" rx="11" ry="11" style="stroke:#181818;stroke-width:1.0;"/><path d="M1160.7656,835.875 Q1160.9219,835.6563 1161.1094,835.5469 Q1161.2969,835.4375 1161.5156,835.4375 Q1161.8906,835.4375 1162.125,835.7031 Q1162.3594,835.9531 1162.3594,836.5625 L1162.3594,838.0156 Q1162.3594,838.625 1162.125,838.8906 Q1161.8906,839.1563 1161.5156,839.1563 Q1161.1719,839.1563 1160.9688,838.9531 Q1160.7656,838.7656 1160.6563,838.25 Q1160.6094,837.8906 1160.4219,837.7031 Q1160.0938,837.3281 1159.4844,837.1094 Q1158.875,836.8906 1158.25,836.8906 Q1157.4844,836.8906 1156.8438,837.2188 Q1156.2188,837.5469 1155.7188,838.2969 Q1155.2344,839.0469 1155.2344,840.0781 L1155.2344,841.1719 Q1155.2344,842.4063 1156.125,843.2344 Q1157.0156,844.0469 1158.6094,844.0469 Q1159.5469,844.0469 1160.2031,843.7969 Q1160.5938,843.6406 1161.0156,843.2031 Q1161.2813,842.9375 1161.4219,842.8594 Q1161.5781,842.7813 1161.7813,842.7813 Q1162.1094,842.7813 1162.3594,843.0469 Q1162.625,843.2969 1162.625,843.6406 Q1162.625,843.9844 1162.2813,844.3906 Q1161.7813,844.9688 1160.9844,845.2969 Q1159.9063,845.75 1158.6094,845.75 Q1157.0938,845.75 1155.8906,845.125 Q1154.9063,844.625 1154.2188,843.5625 Q1153.5313,842.4844 1153.5313,841.2031 L1153.5313,840.0469 Q1153.5313,838.7188 1154.1406,837.5781 Q1154.7656,836.4219 1155.8594,835.8125 Q1156.9531,835.1875 1158.1875,835.1875 Q1158.9219,835.1875 1159.5625,835.3594 Q1160.2188,835.5156 1160.7656,835.875 Z " fill="#000000"/><text fill="#000000" font-family="sans-serif" font-size="14" lengthAdjust="spacing" textLength="124" x="1172" y="845.7285">PortfolioImportForm</text><line style="stroke:#181818;stroke-width:0.5;" x1="1144" x2="1298" y1="856" y2="856"/><text fill="#000000" font-family="sans-serif" font-size="14" lengthAdjust="spacing" textLength="82" x="1149" y="874.5332">file_path : str</text><line style="stroke:#181818;stroke-width:0.5;" x1="1144" x2="1298" y1="881.6094" y2="881.6094"/><text fill="#000000" font-family="sans-serif" font-size="14" lengthAdjust="spacing" textLength="107" x="1149" y="900.1426">validate() -&gt; bool</text></g><!--class pocketsage.blueprints.portfolio.repository.PortfolioRepository--><g id="elem_pocketsage.blueprints.portfolio.repository.PortfolioRepository"><rect codeLine="168" fill="#F1F1F1" height="100.8281" id="pocketsage.blueprints.portfolio.repository.PortfolioRepository" rx="2.5" ry="2.5" style="stroke:#181818;stroke-width:0.5;" width="198" x="1334" y="815"/><ellipse cx="1369.7" cy="831" fill="#ADD1B2" rx="11" ry="11" style="stroke:#181818;stroke-width:1.0;"/><path d="M1372.4656,826.875 Q1372.6219,826.6563 1372.8094,826.5469 Q1372.9969,826.4375 1373.2156,826.4375 Q1373.5906,826.4375 1373.825,826.7031 Q1374.0594,826.9531 1374.0594,827.5625 L1374.0594,829.0156 Q1374.0594,829.625 1373.825,829.8906 Q1373.5906,830.1563 1373.2156,830.1563 Q1372.8719,830.1563 1372.6688,829.9531 Q1372.4656,829.7656 1372.3563,829.25 Q1372.3094,828.8906 1372.1219,828.7031 Q1371.7938,828.3281 1371.1844,828.1094 Q1370.575,827.8906 1369.95,827.8906 Q1369.1844,827.8906 1368.5438,828.2188 Q1367.9188,828.5469 1367.4188,829.2969 Q1366.9344,830.0469 1366.9344,831.0781 L1366.9344,832.1719 Q1366.9344,833.4063 1367.825,834.2344 Q1368.7156,835.0469 1370.3094,835.0469 Q1371.2469,835.0469 1371.9031,834.7969 Q1372.2938,834.6406 1372.7156,834.2031 Q1372.9813,833.9375 1373.1219,833.8594 Q1373.2781,833.7813 1373.4813,833.7813 Q1373.8094,833.7813 1374.0594,834.0469 Q1374.325,834.2969 1374.325,834.6406 Q1374.325,834.9844 1373.9813,835.3906 Q1373.4813,835.9688 1372.6844,836.2969 Q1371.6063,836.75 1370.3094,836.75 Q1368.7938,836.75 1367.5906,836.125 Q1366.6063,835.625 1365.9188,834.5625 Q1365.2313,833.4844 1365.2313,832.2031 L1365.2313,831.0469 Q1365.2313,829.7188 1365.8406,828.5781 Q1366.4656,827.4219 1367.5594,826.8125 Q1368.6531,826.1875 1369.8875,826.1875 Q1370.6219,826.1875 1371.2625,826.3594 Q1371.9188,826.5156 1372.4656,826.875 Z " fill="#000000"/><text fill="#000000" font-family="sans-serif" font-size="14" lengthAdjust="spacing" textLength="120" x="1388.3" y="836.7285">PortfolioRepository</text><line style="stroke:#181818;stroke-width:0.5;" x1="1335" x2="1531" y1="847" y2="847"/><line style="stroke:#181818;stroke-width:0.5;" x1="1335" x2="1531" y1="855" y2="855"/><text fill="#000000" font-family="sans-serif" font-size="14" lengthAdjust="spacing" textLength="178" x="1340" y="873.5332">allocation_summary() -&gt; dict</text><text fill="#000000" font-family="sans-serif" font-size="14" lengthAdjust="spacing" textLength="149" x="1340" y="891.1426">import_positions() -&gt; int</text><text fill="#000000" font-family="sans-serif" font-size="14" lengthAdjust="spacing" textLength="186" x="1340" y="908.752">list_holdings() -&gt; Iterable[dict]</text></g><!--class pocketsage.services.reports.ReportRenderer--><g id="elem_pocketsage.services.reports.ReportRenderer"><rect codeLine="173" fill="#F1F1F1" height="65.6094" id="pocketsage.services.reports.ReportRenderer" rx="2.5" ry="2.5" style="stroke:#181818;stroke-width:0.5;" width="203" x="81.5" y="1099"/><ellipse cx="127.25" cy="1115" fill="#ADD1B2" rx="11" ry="11" style="stroke:#181818;stroke-width:1.0;"/><path d="M130.0156,1110.875 Q130.1719,1110.6563 130.3594,1110.5469 Q130.5469,1110.4375 130.7656,1110.4375 Q131.1406,1110.4375 131.375,1110.7031 Q131.6094,1110.9531 131.6094,1111.5625 L131.6094,1113.0156 Q131.6094,1113.625 131.375,1113.8906 Q131.1406,1114.1563 130.7656,1114.1563 Q130.4219,1114.1563 130.2188,1113.9531 Q130.0156,1113.7656 129.9063,1113.25 Q129.8594,1112.8906 129.6719,1112.7031 Q129.3438,1112.3281 128.7344,1112.1094 Q128.125,1111.8906 127.5,1111.8906 Q126.7344,1111.8906 126.0938,1112.2188 Q125.4688,1112.5469 124.9688,1113.2969 Q124.4844,1114.0469 124.4844,1115.0781 L124.4844,1116.1719 Q124.4844,1117.4063 125.375,1118.2344 Q126.2656,1119.0469 127.8594,1119.0469 Q128.7969,1119.0469 129.4531,1118.7969 Q129.8438,1118.6406 130.2656,1118.2031 Q130.5313,1117.9375 130.6719,1117.8594 Q130.8281,1117.7813 131.0313,1117.7813 Q131.3594,1117.7813 131.6094,1118.0469 Q131.875,1118.2969 131.875,1118.6406 Q131.875,1118.9844 131.5313,1119.3906 Q131.0313,1119.9688 130.2344,1120.2969 Q129.1563,1120.75 127.8594,1120.75 Q126.3438,1120.75 125.1406,1120.125 Q124.1563,1119.625 123.4688,1118.5625 Q122.7813,1117.4844 122.7813,1116.2031 L122.7813,1115.0469 Q122.7813,1113.7188 123.3906,1112.5781 Q124.0156,1111.4219 125.1094,1110.8125 Q126.2031,1110.1875 127.4375,1110.1875 Q128.1719,1110.1875 128.8125,1110.3594 Q129.4688,1110.5156 130.0156,1110.875 Z " fill="#000000"/><text fill="#000000" font-family="sans-serif" font-size="14" lengthAdjust="spacing" textLength="103" x="147.75" y="1120.7285">ReportRenderer</text><line style="stroke:#181818;stroke-width:0.5;" x1="82.5" x2="283.5" y1="1131" y2="1131"/><line style="stroke:#181818;stroke-width:0.5;" x1="82.5" x2="283.5" y1="1139" y2="1139"/><text fill="#000000" font-family="sans-serif" font-size="14" lengthAdjust="spacing" textLength="191" x="87.5" y="1157.5332">render(figure: Figure) -&gt; None</text></g><!--class pocketsage.blueprints.portfolio.repository.SqlModelPortfolioRepository--><g id="elem_pocketsage.blueprints.portfolio.repository.SqlModelPortfolioRepository"><rect codeLine="176" fill="#F1F1F1" height="118.4375" id="pocketsage.blueprints.portfolio.repository.SqlModelPortfolioRepository" rx="2.5" ry="2.5" style="stroke:#181818;stroke-width:0.5;" width="210" x="320" y="1073"/><ellipse cx="335" cy="1089" fill="#ADD1B2" rx="11" ry="11" style="stroke:#181818;stroke-width:1.0;"/><path d="M337.7656,1084.875 Q337.9219,1084.6563 338.1094,1084.5469 Q338.2969,1084.4375 338.5156,1084.4375 Q338.8906,1084.4375 339.125,1084.7031 Q339.3594,1084.9531 339.3594,1085.5625 L339.3594,1087.0156 Q339.3594,1087.625 339.125,1087.8906 Q338.8906,1088.1563 338.5156,1088.1563 Q338.1719,1088.1563 337.9688,1087.9531 Q337.7656,1087.7656 337.6563,1087.25 Q337.6094,1086.8906 337.4219,1086.7031 Q337.0938,1086.3281 336.4844,1086.1094 Q335.875,1085.8906 335.25,1085.8906 Q334.4844,1085.8906 333.8438,1086.2188 Q333.2188,1086.5469 332.7188,1087.2969 Q332.2344,1088.0469 332.2344,1089.0781 L332.2344,1090.1719 Q332.2344,1091.4063 333.125,1092.2344 Q334.0156,1093.0469 335.6094,1093.0469 Q336.5469,1093.0469 337.2031,1092.7969 Q337.5938,1092.6406 338.0156,1092.2031 Q338.2813,1091.9375 338.4219,1091.8594 Q338.5781,1091.7813 338.7813,1091.7813 Q339.1094,1091.7813 339.3594,1092.0469 Q339.625,1092.2969 339.625,1092.6406 Q339.625,1092.9844 339.2813,1093.3906 Q338.7813,1093.9688 337.9844,1094.2969 Q336.9063,1094.75 335.6094,1094.75 Q334.0938,1094.75 332.8906,1094.125 Q331.9063,1093.625 331.2188,1092.5625 Q330.5313,1091.4844 330.5313,1090.2031 L330.5313,1089.0469 Q330.5313,1087.7188 331.1406,1086.5781 Q331.7656,1085.4219 332.8594,1084.8125 Q333.9531,1084.1875 335.1875,1084.1875 Q335.9219,1084.1875 336.5625,1084.3594 Q337.2188,1084.5156 337.7656,1084.875 Z " fill="#000000"/><text fill="#000000" font-family="sans-serif" font-size="14" lengthAdjust="spacing" textLength="178" x="349" y="1094.7285">SqlModelPortfolioRepository</text><line style="stroke:#181818;stroke-width:0.5;" x1="321" x2="529" y1="1105" y2="1105"/><text fill="#000000" font-family="sans-serif" font-size="14" lengthAdjust="spacing" textLength="48" x="326" y="1123.5332">session</text><line style="stroke:#181818;stroke-width:0.5;" x1="321" x2="529" y1="1130.6094" y2="1130.6094"/><text fill="#000000" font-family="sans-serif" font-size="14" lengthAdjust="spacing" textLength="178" x="326" y="1149.1426">allocation_summary() -&gt; dict</text><text fill="#000000" font-family="sans-serif" font-size="14" lengthAdjust="spacing" textLength="149" x="326" y="1166.752">import_positions() -&gt; int</text><text fill="#000000" font-family="sans-serif" font-size="14" lengthAdjust="spacing" textLength="88" x="326" y="1184.3613">list_holdings()</text></g><!--class pocketsage.models.transaction.Transaction--><g id="elem_pocketsage.models.transaction.Transaction"><rect codeLine="182" fill="#F1F1F1" height="224.0938" id="pocketsage.models.transaction.Transaction" rx="2.5" ry="2.5" style="stroke:#181818;stroke-width:0.5;" width="204" x="565" y="1020"/><ellipse cx="625.25" cy="1036" fill="#ADD1B2" rx="11" ry="11" style="stroke:#181818;stroke-width:1.0;"/><path d="M628.0156,1031.875 Q628.1719,1031.6563 628.3594,1031.5469 Q628.5469,1031.4375 628.7656,1031.4375 Q629.1406,1031.4375 629.375,1031.7031 Q629.6094,1031.9531 629.6094,1032.5625 L629.6094,1034.0156 Q629.6094,1034.625 629.375,1034.8906 Q629.1406,1035.1563 628.7656,1035.1563 Q628.4219,1035.1563 628.2188,1034.9531 Q628.0156,1034.7656 627.9063,1034.25 Q627.8594,1033.8906 627.6719,1033.7031 Q627.3438,1033.3281 626.7344,1033.1094 Q626.125,1032.8906 625.5,1032.8906 Q624.7344,1032.8906 624.0938,1033.2188 Q623.4688,1033.5469 622.9688,1034.2969 Q622.4844,1035.0469 622.4844,1036.0781 L622.4844,1037.1719 Q622.4844,1038.4063 623.375,1039.2344 Q624.2656,1040.0469 625.8594,1040.0469 Q626.7969,1040.0469 627.4531,1039.7969 Q627.8438,1039.6406 628.2656,1039.2031 Q628.5313,1038.9375 628.6719,1038.8594 Q628.8281,1038.7813 629.0313,1038.7813 Q629.3594,1038.7813 629.6094,1039.0469 Q629.875,1039.2969 629.875,1039.6406 Q629.875,1039.9844 629.5313,1040.3906 Q629.0313,1040.9688 628.2344,1041.2969 Q627.1563,1041.75 625.8594,1041.75 Q624.3438,1041.75 623.1406,1041.125 Q622.1563,1040.625 621.4688,1039.5625 Q620.7813,1038.4844 620.7813,1037.2031 L620.7813,1036.0469 Q620.7813,1034.7188 621.3906,1033.5781 Q622.0156,1032.4219 623.1094,1031.8125 Q624.2031,1031.1875 625.4375,1031.1875 Q626.1719,1031.1875 626.8125,1031.3594 Q627.4688,1031.5156 628.0156,1031.875 Z " fill="#000000"/><text fill="#000000" font-family="sans-serif" font-size="14" lengthAdjust="spacing" textLength="75" x="645.75" y="1041.7285">Transaction</text><line style="stroke:#181818;stroke-width:0.5;" x1="566" x2="768" y1="1052" y2="1052"/><text fill="#000000" font-family="sans-serif" font-size="14" lengthAdjust="spacing" textLength="180" x="571" y="1070.5332">account : Optional['Account']</text><text fill="#000000" font-family="sans-serif" font-size="14" lengthAdjust="spacing" textLength="157" x="571" y="1088.1426">account_id : Optional[int]</text><text fill="#000000" font-family="sans-serif" font-size="14" lengthAdjust="spacing" textLength="86" x="571" y="1105.752">amount : float</text><text fill="#000000" font-family="sans-serif" font-size="14" lengthAdjust="spacing" textLength="192" x="571" y="1123.3613">category : Optional['Category']</text><text fill="#000000" font-family="sans-serif" font-size="14" lengthAdjust="spacing" textLength="162" x="571" y="1140.9707">category_id : Optional[int]</text><text fill="#000000" font-family="sans-serif" font-size="14" lengthAdjust="spacing" textLength="83" x="571" y="1158.5801">currency : str</text><text fill="#000000" font-family="sans-serif" font-size="14" lengthAdjust="spacing" textLength="158" x="571" y="1176.1895">external_id : Optional[str]</text><text fill="#000000" font-family="sans-serif" font-size="14" lengthAdjust="spacing" textLength="99" x="571" y="1193.7988">id : Optional[int]</text><text fill="#000000" font-family="sans-serif" font-size="14" lengthAdjust="spacing" textLength="66" x="571" y="1211.4082">memo : str</text><text fill="#000000" font-family="sans-serif" font-size="14" lengthAdjust="spacing" textLength="142" x="571" y="1229.0176">occurred_at : datetime</text><line style="stroke:#181818;stroke-width:0.5;" x1="566" x2="768" y1="1236.0938" y2="1236.0938"/></g><!--class pocketsage.models.transaction.TransactionTagLink--><g id="elem_pocketsage.models.transaction.TransactionTagLink"><rect codeLine="194" fill="#F1F1F1" height="83.2188" id="pocketsage.models.transaction.TransactionTagLink" rx="2.5" ry="2.5" style="stroke:#181818;stroke-width:0.5;" width="158" x="804" y="1090.5"/><ellipse cx="819" cy="1106.5" fill="#ADD1B2" rx="11" ry="11" style="stroke:#181818;stroke-width:1.0;"/><path d="M821.7656,1102.375 Q821.9219,1102.1563 822.1094,1102.0469 Q822.2969,1101.9375 822.5156,1101.9375 Q822.8906,1101.9375 823.125,1102.2031 Q823.3594,1102.4531 823.3594,1103.0625 L823.3594,1104.5156 Q823.3594,1105.125 823.125,1105.3906 Q822.8906,1105.6563 822.5156,1105.6563 Q822.1719,1105.6563 821.9688,1105.4531 Q821.7656,1105.2656 821.6563,1104.75 Q821.6094,1104.3906 821.4219,1104.2031 Q821.0938,1103.8281 820.4844,1103.6094 Q819.875,1103.3906 819.25,1103.3906 Q818.4844,1103.3906 817.8438,1103.7188 Q817.2188,1104.0469 816.7188,1104.7969 Q816.2344,1105.5469 816.2344,1106.5781 L816.2344,1107.6719 Q816.2344,1108.9063 817.125,1109.7344 Q818.0156,1110.5469 819.6094,1110.5469 Q820.5469,1110.5469 821.2031,1110.2969 Q821.5938,1110.1406 822.0156,1109.7031 Q822.2813,1109.4375 822.4219,1109.3594 Q822.5781,1109.2813 822.7813,1109.2813 Q823.1094,1109.2813 823.3594,1109.5469 Q823.625,1109.7969 823.625,1110.1406 Q823.625,1110.4844 823.2813,1110.8906 Q822.7813,1111.4688 821.9844,1111.7969 Q820.9063,1112.25 819.6094,1112.25 Q818.0938,1112.25 816.8906,1111.625 Q815.9063,1111.125 815.2188,1110.0625 Q814.5313,1108.9844 814.5313,1107.7031 L814.5313,1106.5469 Q814.5313,1105.2188 815.1406,1104.0781 Q815.7656,1102.9219 816.8594,1102.3125 Q817.9531,1101.6875 819.1875,1101.6875 Q819.9219,1101.6875 820.5625,1101.8594 Q821.2188,1102.0156 821.7656,1102.375 Z " fill="#000000"/><text fill="#000000" font-family="sans-serif" font-size="14" lengthAdjust="spacing" textLength="126" x="833" y="1112.2285">TransactionTagLink</text><line style="stroke:#181818;stroke-width:0.5;" x1="805" x2="961" y1="1122.5" y2="1122.5"/><text fill="#000000" font-family="sans-serif" font-size="14" lengthAdjust="spacing" textLength="66" x="810" y="1141.0332">tag_id : int</text><text fill="#000000" font-family="sans-serif" font-size="14" lengthAdjust="spacing" textLength="116" x="810" y="1158.6426">transaction_id : int</text><line style="stroke:#181818;stroke-width:0.5;" x1="805" x2="961" y1="1165.7188" y2="1165.7188"/></g><!--class pocketsage.services.watcher.start_watcher._Handler--><g id="elem_pocketsage.services.watcher.start_watcher._Handler"><rect codeLine="198" fill="#F1F1F1" height="83.2188" id="pocketsage.services.watcher.start_watcher._Handler" rx="2.5" ry="2.5" style="stroke:#181818;stroke-width:0.5;" width="183" x="997.5" y="1090.5"/><ellipse cx="1056.25" cy="1106.5" fill="#ADD1B2" rx="11" ry="11" style="stroke:#181818;stroke-width:1.0;"/><path d="M1059.0156,1102.375 Q1059.1719,1102.1563 1059.3594,1102.0469 Q1059.5469,1101.9375 1059.7656,1101.9375 Q1060.1406,1101.9375 1060.375,1102.2031 Q1060.6094,1102.4531 1060.6094,1103.0625 L1060.6094,1104.5156 Q1060.6094,1105.125 1060.375,1105.3906 Q1060.1406,1105.6563 1059.7656,1105.6563 Q1059.4219,1105.6563 1059.2188,1105.4531 Q1059.0156,1105.2656 1058.9063,1104.75 Q1058.8594,1104.3906 1058.6719,1104.2031 Q1058.3438,1103.8281 1057.7344,1103.6094 Q1057.125,1103.3906 1056.5,1103.3906 Q1055.7344,1103.3906 1055.0938,1103.7188 Q1054.4688,1104.0469 1053.9688,1104.7969 Q1053.4844,1105.5469 1053.4844,1106.5781 L1053.4844,1107.6719 Q1053.4844,1108.9063 1054.375,1109.7344 Q1055.2656,1110.5469 1056.8594,1110.5469 Q1057.7969,1110.5469 1058.4531,1110.2969 Q1058.8438,1110.1406 1059.2656,1109.7031 Q1059.5313,1109.4375 1059.6719,1109.3594 Q1059.8281,1109.2813 1060.0313,1109.2813 Q1060.3594,1109.2813 1060.6094,1109.5469 Q1060.875,1109.7969 1060.875,1110.1406 Q1060.875,1110.4844 1060.5313,1110.8906 Q1060.0313,1111.4688 1059.2344,1111.7969 Q1058.1563,1112.25 1056.8594,1112.25 Q1055.3438,1112.25 1054.1406,1111.625 Q1053.1563,1111.125 1052.4688,1110.0625 Q1051.7813,1108.9844 1051.7813,1107.7031 L1051.7813,1106.5469 Q1051.7813,1105.2188 1052.3906,1104.0781 Q1053.0156,1102.9219 1054.1094,1102.3125 Q1055.2031,1101.6875 1056.4375,1101.6875 Q1057.1719,1101.6875 1057.8125,1101.8594 Q1058.4688,1102.0156 1059.0156,1102.375 Z " fill="#000000"/><text fill="#000000" font-family="sans-serif" font-size="14" lengthAdjust="spacing" textLength="57" x="1076.75" y="1112.2285">_Handler</text><line style="stroke:#181818;stroke-width:0.5;" x1="998.5" x2="1179.5" y1="1122.5" y2="1122.5"/><text fill="#000000" font-family="sans-serif" font-size="14" lengthAdjust="spacing" textLength="52" x="1003.5" y="1141.0332">importer</text><line style="stroke:#181818;stroke-width:0.5;" x1="998.5" x2="1179.5" y1="1148.1094" y2="1148.1094"/><text fill="#000000" font-family="sans-serif" font-size="14" lengthAdjust="spacing" textLength="171" x="1003.5" y="1166.6426">on_created(event) -&gt; None</text></g><!--link pocketsage.config.DevConfig to pocketsage.config.BaseConfig--><g id="link_pocketsage.config.DevConfig_pocketsage.config.BaseConfig"><path codeLine="202" d="M1513,125.51 C1513,151.58 1513,168.84 1513,202.84 " fill="none" id="pocketsage.config.DevConfig-to-pocketsage.config.BaseConfig" style="stroke:#181818;stroke-width:1.0;"/><polygon fill="none" points="1513,220.84,1519,202.84,1507,202.84,1513,220.84" style="stroke:#181818;stroke-width:1.0;"/></g><!--SRC=[hLXVRzis47_lfn3wqWvezG7wKC29dSIRasMnqs4e2eAMQ8Sh9IeavKvh-zrt_2EHeYJRA_gIsCSxydV7kzyTBObAIbmGMU6Ch4c51LPS92KloOkCOIcJbxCiutMfNYPO9XNFFXCbyPwa1Sy9aocsgwdJIhw-I9Ai5eAKMPEyIwGI87ZYBAVbNe9WHQNw-Eh62bvzWaMQW_ZtIb5UOlQHbaeBDQREN0bSIfnf3R_5nWjXc-yTse8BHV_5Mlwde8g86BWaua0p8jESR9LCXmR6Xo_w8vBP4ybhHbx_ahnzdzpfgFYJgcfDb08t9a8ZxIeSqMcQhNCYCq6Dmw7duAls_3FnSJjWLhTXwCwzm99Syd971-TcHffw1NFSxFuUtSrk5zskyzbcTZ5RBz3Zmmg4sgjDKn6tWkRB1v3UO_Ma9HVeQhbQzEpNYyk7nGRzjlYhRxt-OtMvlBzPFA2hrUpQgtTYi42Bkm_XodApGFSFi-lRsHh4ESqKo1y1MsS5uYtd3CJocM465r8qY9HxMXB4JUoalHrjh8Fu9fcLJP0H5tM-9rFfkpMBgTKnuHfDHuQtX7Mu6Ppj4z7Qha1cqhaYWl8S4EfzSgo8bqc5XMgb4JvjVmv6hMTmMcc7oNv51Zs0rbK8f-ovQ4BPg7CLmsL9SeGBKy7laXtZM6iBpXW_407Eu2qZUNiL4VG7Kd59WJQQoLApwA00qjZ4-09bN6E6P0LHivUvX3hKPtvKTGL_0UaR2-lJ4B4yRH8X_e05nML6piRR6WHeWpYDHHfkJk50nq7k91sYo_M7PL411nrXgYzOGTwBDD0597uBT_v4_hJmqbRFadGBMa7rTccKSGRqFsIbqoGjMRt_8SQ-vAmkobjSLIDKseM06hzH9Wzfpy3TY6a-Dlw08FbckTglUAZ1MfllplKsEf5QlvjvEVa7hW6YCN9gGGeUotXcDeAaLJ6Zpw4HJNJPg5a5cjRnIWGvjiNC9AcN10bPq98MTO4gt1GaAFC0nU5eM-dMpSdpnSNZjUVcpMAzMTvT3nZY1c_f5FS-wRNKQBYCp8c5Ro-atoUj390B6f2liLw0i9cU9QX4EkiEnCCDChSFrMnr6gzHCw2Dq0yw-bj80zsj6nzSEsZRkbRf7t_5HH6VlWNbIe2kGo3J7MZ9j3CuEtYzUlsAj_010lCTu52DpDBeoFt9QOOVWXETRXeRMw22m5d8QDiJZPffgr9PUSpeHaDVfI0P5xgvGlW3OtCT0MWxNKvSe-QH7MUKfqulf90mVLwvIZEPrQEOECDmzbpJhhQxLHrKHGjYL0vx187gLUTWJXxT_Bd6fQAg2GnbKsmvYnFuLxwTf8-_-LQce11SWKFRWjJ59SGe-U-0EkJJKVTQ3ZJafp0iwUOtxuzaSSVGuz3HNK53rT9t5Oxqa6SlVZunxgq8D6nXCk94DJ6ZwQefChCvqHk8WexGw_VnVNdo7x1-wvlVwhmgjE3EgaBdL525iN5OXK6VjkS6FRgjoB2NHtKPQ6lFwogFDmq-GxGCvGtEyMvIA6P65H3yURvw_Px3Ozk4NhTsZa9Q_QRrEDWtShXJDTdf7eUwfVBTRkoDsEbFS567f0FTdDNNyvgW73V7v_gfZX-L8OUfksrGlIeqaxPn3UaSXPnlOihfK9ygjU2cNBs5be7FSvBH0gRhhaAyyuEbeOC3bHzeUVTjVx2ZzWdFV3UnVerO6-zsr2IAUWeVzwSnd5K77aDG1IDRs333coupltOWMHS5RXkfUtkxETkO-8gtMMORjFij9weCRHwmi3vKm3Elp8auyh0HHascVNM3KvWlhs7Uh0LvbroP_oCbjdvcjxgOVaB8Zcnb84aYfIN6dnT4xqX0YHDi4P1f6cZ_XFabVla7Ro6_NVjyDFiTxu63oQR_M3hhTNb67nqDtWRlLxJy_FzYw8nCA1NUXoDyluN5OpkwmMNEpdYxcsa7jTzQC_kJatlJQpzBvAQpr-H0NBDq2N_iIVRsxRVtHtyA_0y0]--></g></svg>