<?xml version="1.0" encoding="us-ascii" standalone="no"?><svg xmlns="http://www.w3.org/2000/svg" xmlns:xlink="http://www.w3.org/1999/xlink" contentStyleType="text/css" height="427px" preserveAspectRatio="none" style="width:533px;height:427px;background:#FFFFFF;" version="1.1" viewBox="0 0 533 427" width="533px" zoomAndPan="magnify"><defs/><g><line style="stroke:#181818;stroke-width:0.5;stroke-dasharray:5.0,5.0;" x1="22" x2="22" y1="82.6094" y2="345.4219"/><line style="stroke:#181818;stroke-width:0.5;stroke-dasharray:5.0,5.0;" x1="124.5" x2="124.5" y1="82.6094" y2="345.4219"/><line style="stroke:#181818;stroke-width:0.5;stroke-dasharray:5.0,5.0;" x1="217.5" x2="217.5" y1="82.6094" y2="345.4219"/><line style="stroke:#181818;stroke-width:0.5;stroke-dasharray:5.0,5.0;" x1="341.5" x2="341.5" y1="82.6094" y2="345.4219"/><line style="stroke:#181818;stroke-width:0.5;stroke-dasharray:5.0,5.0;" x1="472.5" x2="472.5" y1="82.6094" y2="345.4219"/><text fill="#000000" font-family="sans-serif" font-size="14" lengthAdjust="spacing" textLength="29" x="5" y="79.5332">User</text><ellipse cx="22.5" cy="13.5" fill="#E2E2F0" rx="8" ry="8" style="stroke:#181818;stroke-width:0.5;"/><path d="M22.5,21.5 L22.5,48.5 M9.5,29.5 L35.5,29.5 M22.5,48.5 L9.5,63.5 M22.5,48.5 L35.5,63.5 " fill="none" style="stroke:#181818;stroke-width:0.5;"/><text fill="#000000" font-family="sans-serif" font-size="14" lengthAdjust="spacing" textLength="29" x="5" y="358.9551">User</text><ellipse cx="22.5" cy="370.5313" fill="#E2E2F0" rx="8" ry="8" style="stroke:#181818;stroke-width:0.5;"/><path d="M22.5,378.5313 L22.5,405.5313 M9.5,386.5313 L35.5,386.5313 M22.5,405.5313 L9.5,420.5313 M22.5,405.5313 L35.5,420.5313 " fill="none" style="stroke:#181818;stroke-width:0.5;"/><rect fill="#E2E2F0" height="31.6094" rx="2.5" ry="2.5" style="stroke:#181818;stroke-width:0.5;" width="26" x="111.5" y="50"/><text fill="#000000" font-family="sans-serif" font-size="14" lengthAdjust="spacing" textLength="12" x="118.5" y="71.5332">UI</text><rect fill="#E2E2F0" height="31.6094" rx="2.5" ry="2.5" style="stroke:#181818;stroke-width:0.5;" width="26" x="111.5" y="344.4219"/><text fill="#000000" font-family="sans-serif" font-size="14" lengthAdjust="spacing" textLength="12" x="118.5" y="365.9551">UI</text><rect fill="#E2E2F0" height="31.6094" rx="2.5" ry="2.5" style="stroke:#181818;stroke-width:0.5;" width="106" x="164.5" y="50"/><text fill="#000000" font-family="sans-serif" font-size="14" lengthAdjust="spacing" textLength="92" x="171.5" y="71.5332">LedgerService</text><rect fill="#E2E2F0" height="31.6094" rx="2.5" ry="2.5" style="stroke:#181818;stroke-width:0.5;" width="106" x="164.5" y="344.4219"/><text fill="#000000" font-family="sans-serif" font-size="14" lengthAdjust="spacing" textLength="92" x="171.5" y="365.9551">LedgerService</text><rect fill="#E2E2F0" height="31.6094" rx="2.5" ry="2.5" style="stroke:#181818;stroke-width:0.5;" width="123" x="280.5" y="50"/><text fill="#000000" font-family="sans-serif" font-size="14" lengthAdjust="spacing" textLength="109" x="287.5" y="71.5332">TransactionRepo</text><rect fill="#E2E2F0" height="31.6094" rx="2.5" ry="2.5" style="stroke:#181818;stroke-width:0.5;" width="123" x="280.5" y="344.4219"/><text fill="#000000" font-family="sans-serif" font-size="14" lengthAdjust="spacing" textLength="109" x="287.5" y="365.9551">TransactionRepo</text><text fill="#000000" font-family="sans-serif" font-size="14" lengthAdjust="spacing" textLength="113" x="413.5" y="79.5332">SQLite/SQLModel</text><path d="M455,29 C455,19 473,19 473,19 C473,19 491,19 491,29 L491,55 C491,65 473,65 473,65 C473,65 455,65 455,55 L455,29 " fill="#E2E2F0" style="stroke:#181818;stroke-width:1.5;"/><path d="M455,29 C455,39 473,39 473,39 C473,39 491,39 491,29 " fill="none" style="stroke:#181818;stroke-width:1.5;"/><text fill="#000000" font-family="sans-serif" font-size="14" lengthAdjust="spacing" textLength="113" x="413.5" y="358.9551">SQLite/SQLModel</text><path d="M455,372.0313 C455,362.0313 473,362.0313 473,362.0313 C473,362.0313 491,362.0313 491,372.0313 L491,398.0313 C491,408.0313 473,408.0313 473,408.0313 C473,408.0313 455,408.0313 455,398.0313 L455,372.0313 " fill="#E2E2F0" style="stroke:#181818;stroke-width:1.5;"/><path d="M455,372.0313 C455,382.0313 473,382.0313 473,382.0313 C473,382.0313 491,382.0313 491,372.0313 " fill="none" style="stroke:#181818;stroke-width:1.5;"/><polygon fill="#181818" points="112.5,110.9609,122.5,114.9609,112.5,118.9609,116.5,114.9609" style="stroke:#181818;stroke-width:1.0;"/><line style="stroke:#181818;stroke-width:1.0;" x1="22.5" x2="118.5" y1="114.9609" y2="114.9609"/><text fill="#000000" font-family="sans-serif" font-size="13" lengthAdjust="spacing" textLength="68" x="29.5" y="110.1045">submit form</text><polygon fill="#181818" points="205.5,141.3125,215.5,145.3125,205.5,149.3125,209.5,145.3125" style="stroke:#181818;stroke-width:1.0;"/><line style="stroke:#181818;stroke-width:1.0;" x1="124.5" x2="211.5" y1="145.3125" y2="145.3125"/><text fill="#000000" font-family="sans-serif" font-size="13" lengthAdjust="spacing" textLength="69" x="131.5" y="140.4561">validate(dto)</text><polygon fill="#181818" points="330,171.6641,340,175.6641,330,179.6641,334,175.6641" style="stroke:#181818;stroke-width:1.0;"/><line style="stroke:#181818;stroke-width:1.0;" x1="217.5" x2="336" y1="175.6641" y2="175.6641"/><text fill="#000000" font-family="sans-serif" font-size="13" lengthAdjust="spacing" textLength="62" x="224.5" y="170.8076">create(dto)</text><polygon fill="#181818" points="461,202.0156,471,206.0156,461,210.0156,465,206.0156" style="stroke:#181818;stroke-width:1.0;"/><line style="stroke:#181818;stroke-width:1.0;" x1="342" x2="467" y1="206.0156" y2="206.0156"/><text fill="#000000" font-family="sans-serif" font-size="13" lengthAdjust="spacing" textLength="46" x="349" y="201.1592">INSERT</text><polygon fill="#181818" points="353,232.3672,343,236.3672,353,240.3672,349,236.3672" style="stroke:#181818;stroke-width:1.0;"/><line style="stroke:#181818;stroke-width:1.0;stroke-dasharray:2.0,2.0;" x1="347" x2="472" y1="236.3672" y2="236.3672"/><text fill="#000000" font-family="sans-serif" font-size="13" lengthAdjust="spacing" textLength="30" x="359" y="231.5107">rowid</text><polygon fill="#181818" points="228.5,262.7188,218.5,266.7188,228.5,270.7188,224.5,266.7188" style="stroke:#181818;stroke-width:1.0;"/><line style="stroke:#181818;stroke-width:1.0;stroke-dasharray:2.0,2.0;" x1="222.5" x2="341" y1="266.7188" y2="266.7188"/><text fill="#000000" font-family="sans-serif" font-size="13" lengthAdjust="spacing" textLength="67" x="234.5" y="261.8623">Transaction</text><polygon fill="#181818" points="135.5,293.0703,125.5,297.0703,135.5,301.0703,131.5,297.0703" style="stroke:#181818;stroke-width:1.0;"/><line style="stroke:#181818;stroke-width:1.0;stroke-dasharray:2.0,2.0;" x1="129.5" x2="216.5" y1="297.0703" y2="297.0703"/><text fill="#000000" font-family="sans-serif" font-size="13" lengthAdjust="spacing" textLength="49" x="141.5" y="292.2139">success</text><polygon fill="#181818" points="33.5,323.4219,23.5,327.4219,33.5,331.4219,29.5,327.4219" style="stroke:#181818;stroke-width:1.0;"/><line style="stroke:#181818;stroke-width:1.0;stroke-dasharray:2.0,2.0;" x1="27.5" x2="123.5" y1="327.4219" y2="327.4219"/><text fill="#000000" font-family="sans-serif" font-size="13" lengthAdjust="spacing" textLength="78" x="39.5" y="322.5654">toast "Saved"</text><!--SRC=[LO-n3i8m34JtV8NL2OQAFGD3LOPAW4H3Fy0a1aM2fd9C-NsI0XMTRDqzdSze9J1qaLWDoEAj7x0NABgc08pGDKjvJ-v6R8X7RsaYp6YNo9cnZsZ5Xxwb8KnGNfH3mGj6WiASzbveayOXEBfFI5sft0BARJgg8Jul3ozm3VnGNPFLT4Z3Y7UVScZb9AnLahAJqpLOfjd8IdRgIaDpDBlshEeAofdbyFBkI_sY_tf_WkScrbACKuiifP8Q961ClneSoHLl]--></g></svg>