<?xml version="1.0" encoding="us-ascii" standalone="no"?><svg xmlns="http://www.w3.org/2000/svg" xmlns:xlink="http://www.w3.org/1999/xlink" contentStyleType="text/css" height="643px" preserveAspectRatio="none" style="width:7500px;height:643px;background:#FFFFFF;" version="1.1" viewBox="0 0 7500 643" width="7500px" zoomAndPan="magnify"><defs/><g><path d="M298.5,121 L381.5,121 A3.75,3.75 0 0 1 384,123.5 L391,144.6094 L395.5,144.6094 A2.5,2.5 0 0 1 398,147.1094 L398,173.7188 A2.5,2.5 0 0 1 395.5,176.2188 L298.5,176.2188 A2.5,2.5 0 0 1 296,173.7188 L296,123.5 A2.5,2.5 0 0 1 298.5,121 " fill="#F1F1F1" style="stroke:#181818;stroke-width:0.5;"/><line style="stroke:#181818;stroke-width:0.5;" x1="296" x2="391" y1="144.6094" y2="144.6094"/><text fill="#000000" font-family="sans-serif" font-size="14" font-weight="bold" lengthAdjust="spacing" textLength="82" x="300" y="137.5332">pocketsage</text><path d="M1137.5,6 L1296.5,6 A3.75,3.75 0 0 1 1299,8.5 L1306,29.6094 L1310.5,29.6094 A2.5,2.5 0 0 1 1313,32.1094 L1313,58.7188 A2.5,2.5 0 0 1 1310.5,61.2188 L1137.5,61.2188 A2.5,2.5 0 0 1 1135,58.7188 L1135,8.5 A2.5,2.5 0 0 1 1137.5,6 " fill="#F1F1F1" style="stroke:#181818;stroke-width:0.5;"/><line style="stroke:#181818;stroke-width:0.5;" x1="1135" x2="1306" y1="29.6094" y2="29.6094"/><text fill="#000000" font-family="sans-serif" font-size="14" font-weight="bold" lengthAdjust="spacing" textLength="158" x="1139" y="22.5332">pocketsage.blueprints</text><path d="M1350.5,6 L1555.5,6 A3.75,3.75 0 0 1 1558,8.5 L1565,29.6094 L1569.5,29.6094 A2.5,2.5 0 0 1 1572,32.1094 L1572,58.7188 A2.5,2.5 0 0 1 1569.5,61.2188 L1350.5,61.2188 A2.5,2.5 0 0 1 1348,58.7188 L1348,8.5 A2.5,2.5 0 0 1 1350.5,6 " fill="#F1F1F1" style="stroke:#181818;stroke-width:0.5;"/><line style="stroke:#181818;stroke-width:0.5;" x1="1348" x2="1565" y1="29.6094" y2="29.6094"/><text fill="#000000" font-family="sans-serif" font-size="14" font-weight="bold" lengthAdjust="spacing" textLength="204" x="1352" y="22.5332">pocketsage.blueprints.admin</text><path d="M659.5,6 L914.5,6 A3.75,3.75 0 0 1 917,8.5 L924,29.6094 L928.5,29.6094 A2.5,2.5 0 0 1 931,32.1094 L931,58.7188 A2.5,2.5 0 0 1 928.5,61.2188 L659.5,61.2188 A2.5,2.5 0 0 1 657,58.7188 L657,8.5 A2.5,2.5 0 0 1 659.5,6 " fill="#F1F1F1" style="stroke:#181818;stroke-width:0.5;"/><line style="stroke:#181818;stroke-width:0.5;" x1="657" x2="924" y1="29.6094" y2="29.6094"/><text fill="#000000" font-family="sans-serif" font-size="14" font-weight="bold" lengthAdjust="spacing" textLength="254" x="661" y="22.5332">pocketsage.blueprints.admin.routes</text><path d="M909,121 L1155,121 A3.75,3.75 0 0 1 1157.5,123.5 L1164.5,144.6094 L1169,144.6094 A2.5,2.5 0 0 1 1171.5,147.1094 L1171.5,173.7188 A2.5,2.5 0 0 1 1169,176.2188 L909,176.2188 A2.5,2.5 0 0 1 906.5,173.7188 L906.5,123.5 A2.5,2.5 0 0 1 909,121 " fill="#F1F1F1" style="stroke:#181818;stroke-width:0.5;"/><line style="stroke:#181818;stroke-width:0.5;" x1="906.5" x2="1164.5" y1="144.6094" y2="144.6094"/><text fill="#000000" font-family="sans-serif" font-size="14" font-weight="bold" lengthAdjust="spacing" textLength="245" x="910.5" y="137.5332">pocketsage.blueprints.admin.tasks</text><path d="M1610,6 L1816,6 A3.75,3.75 0 0 1 1818.5,8.5 L1825.5,29.6094 L1830,29.6094 A2.5,2.5 0 0 1 1832.5,32.1094 L1832.5,58.7188 A2.5,2.5 0 0 1 1830,61.2188 L1610,61.2188 A2.5,2.5 0 0 1 1607.5,58.7188 L1607.5,8.5 A2.5,2.5 0 0 1 1610,6 " fill="#F1F1F1" style="stroke:#181818;stroke-width:0.5;"/><line style="stroke:#181818;stroke-width:0.5;" x1="1607.5" x2="1825.5" y1="29.6094" y2="29.6094"/><text fill="#000000" font-family="sans-serif" font-size="14" font-weight="bold" lengthAdjust="spacing" textLength="205" x="1611.5" y="22.5332">pocketsage.blueprints.habits</text><path d="M1870,6 L2120,6 A3.75,3.75 0 0 1 2122.5,8.5 L2129.5,29.6094 L2134,29.6094 A2.5,2.5 0 0 1 2136.5,32.1094 L2136.5,58.7188 A2.5,2.5 0 0 1 2134,61.2188 L1870,61.2188 A2.5,2.5 0 0 1 1867.5,58.7188 L1867.5,8.5 A2.5,2.5 0 0 1 1870,6 " fill="#F1F1F1" style="stroke:#181818;stroke-width:0.5;"/><line style="stroke:#181818;stroke-width:0.5;" x1="1867.5" x2="2129.5" y1="29.6094" y2="29.6094"/><text fill="#000000" font-family="sans-serif" font-size="14" font-weight="bold" lengthAdjust="spacing" textLength="249" x="1871.5" y="22.5332">pocketsage.blueprints.habits.forms</text><path d="M2174,6 L2456,6 A3.75,3.75 0 0 1 2458.5,8.5 L2465.5,29.6094 L2470,29.6094 A2.5,2.5 0 0 1 2472.5,32.1094 L2472.5,58.7188 A2.5,2.5 0 0 1 2470,61.2188 L2174,61.2188 A2.5,2.5 0 0 1 2171.5,58.7188 L2171.5,8.5 A2.5,2.5 0 0 1 2174,6 " fill="#F1F1F1" style="stroke:#181818;stroke-width:0.5;"/><line style="stroke:#181818;stroke-width:0.5;" x1="2171.5" x2="2465.5" y1="29.6094" y2="29.6094"/><text fill="#000000" font-family="sans-serif" font-size="14" font-weight="bold" lengthAdjust="spacing" textLength="281" x="2175.5" y="22.5332">pocketsage.blueprints.habits.repository</text><path d="M2510,6 L2766,6 A3.75,3.75 0 0 1 2768.5,8.5 L2775.5,29.6094 L2780,29.6094 A2.5,2.5 0 0 1 2782.5,32.1094 L2782.5,58.7188 A2.5,2.5 0 0 1 2780,61.2188 L2510,61.2188 A2.5,2.5 0 0 1 2507.5,58.7188 L2507.5,8.5 A2.5,2.5 0 0 1 2510,6 " fill="#F1F1F1" style="stroke:#181818;stroke-width:0.5;"/><line style="stroke:#181818;stroke-width:0.5;" x1="2507.5" x2="2775.5" y1="29.6094" y2="29.6094"/><text fill="#000000" font-family="sans-serif" font-size="14" font-weight="bold" lengthAdjust="spacing" textLength="255" x="2511.5" y="22.5332">pocketsage.blueprints.habits.routes</text><path d="M2820.5,6 L3029.5,6 A3.75,3.75 0 0 1 3032,8.5 L3039,29.6094 L3043.5,29.6094 A2.5,2.5 0 0 1 3046,32.1094 L3046,58.7188 A2.5,2.5 0 0 1 3043.5,61.2188 L2820.5,61.2188 A2.5,2.5 0 0 1 2818,58.7188 L2818,8.5 A2.5,2.5 0 0 1 2820.5,6 " fill="#F1F1F1" style="stroke:#181818;stroke-width:0.5;"/><line style="stroke:#181818;stroke-width:0.5;" x1="2818" x2="3039" y1="29.6094" y2="29.6094"/><text fill="#000000" font-family="sans-serif" font-size="14" font-weight="bold" lengthAdjust="spacing" textLength="208" x="2822" y="22.5332">pocketsage.blueprints.ledger</text><path d="M3083.5,6 L3336.5,6 A3.75,3.75 0 0 1 3339,8.5 L3346,29.6094 L3350.5,29.6094 A2.5,2.5 0 0 1 3353,32.1094 L3353,58.7188 A2.5,2.5 0 0 1 3350.5,61.2188 L3083.5,61.2188 A2.5,2.5 0 0 1 3081,58.7188 L3081,8.5 A2.5,2.5 0 0 1 3083.5,6 " fill="#F1F1F1" style="stroke:#181818;stroke-width:0.5;"/><line style="stroke:#181818;stroke-width:0.5;" x1="3081" x2="3346" y1="29.6094" y2="29.6094"/><text fill="#000000" font-family="sans-serif" font-size="14" font-weight="bold" lengthAdjust="spacing" textLength="252" x="3085" y="22.5332">pocketsage.blueprints.ledger.forms</text><path d="M3390.5,6 L3675.5,6 A3.75,3.75 0 0 1 3678,8.5 L3685,29.6094 L3689.5,29.6094 A2.5,2.5 0 0 1 3692,32.1094 L3692,58.7188 A2.5,2.5 0 0 1 3689.5,61.2188 L3390.5,61.2188 A2.5,2.5 0 0 1 3388,58.7188 L3388,8.5 A2.5,2.5 0 0 1 3390.5,6 " fill="#F1F1F1" style="stroke:#181818;stroke-width:0.5;"/><line style="stroke:#181818;stroke-width:0.5;" x1="3388" x2="3685" y1="29.6094" y2="29.6094"/><text fill="#000000" font-family="sans-serif" font-size="14" font-weight="bold" lengthAdjust="spacing" textLength="284" x="3392" y="22.5332">pocketsage.blueprints.ledger.repository</text><path d="M3729.5,6 L3988.5,6 A3.75,3.75 0 0 1 3991,8.5 L3998,29.6094 L4002.5,29.6094 A2.5,2.5 0 0 1 4005,32.1094 L4005,58.7188 A2.5,2.5 0 0 1 4002.5,61.2188 L3729.5,61.2188 A2.5,2.5 0 0 1 3727,58.7188 L3727,8.5 A2.5,2.5 0 0 1 3729.5,6 " fill="#F1F1F1" style="stroke:#181818;stroke-width:0.5;"/><line style="stroke:#181818;stroke-width:0.5;" x1="3727" x2="3998" y1="29.6094" y2="29.6094"/><text fill="#000000" font-family="sans-serif" font-size="14" font-weight="bold" lengthAdjust="spacing" textLength="258" x="3731" y="22.5332">pocketsage.blueprints.ledger.routes</text><path d="M4043,6 L4269,6 A3.75,3.75 0 0 1 4271.5,8.5 L4278.5,29.6094 L4283,29.6094 A2.5,2.5 0 0 1 4285.5,32.1094 L4285.5,58.7188 A2.5,2.5 0 0 1 4283,61.2188 L4043,61.2188 A2.5,2.5 0 0 1 4040.5,58.7188 L4040.5,8.5 A2.5,2.5 0 0 1 4043,6 " fill="#F1F1F1" style="stroke:#181818;stroke-width:0.5;"/><line style="stroke:#181818;stroke-width:0.5;" x1="4040.5" x2="4278.5" y1="29.6094" y2="29.6094"/><text fill="#000000" font-family="sans-serif" font-size="14" font-weight="bold" lengthAdjust="spacing" textLength="225" x="4044.5" y="22.5332">pocketsage.blueprints.liabilities</text><path d="M4323,6 L4593,6 A3.75,3.75 0 0 1 4595.5,8.5 L4602.5,29.6094 L4607,29.6094 A2.5,2.5 0 0 1 4609.5,32.1094 L4609.5,58.7188 A2.5,2.5 0 0 1 4607,61.2188 L4323,61.2188 A2.5,2.5 0 0 1 4320.5,58.7188 L4320.5,8.5 A2.5,2.5 0 0 1 4323,6 " fill="#F1F1F1" style="stroke:#181818;stroke-width:0.5;"/><line style="stroke:#181818;stroke-width:0.5;" x1="4320.5" x2="4602.5" y1="29.6094" y2="29.6094"/><text fill="#000000" font-family="sans-serif" font-size="14" font-weight="bold" lengthAdjust="spacing" textLength="269" x="4324.5" y="22.5332">pocketsage.blueprints.liabilities.forms</text><path d="M4647,6 L4949,6 A3.75,3.75 0 0 1 4951.5,8.5 L4958.5,29.6094 L4963,29.6094 A2.5,2.5 0 0 1 4965.5,32.1094 L4965.5,58.7188 A2.5,2.5 0 0 1 4963,61.2188 L4647,61.2188 A2.5,2.5 0 0 1 4644.5,58.7188 L4644.5,8.5 A2.5,2.5 0 0 1 4647,6 " fill="#F1F1F1" style="stroke:#181818;stroke-width:0.5;"/><line style="stroke:#181818;stroke-width:0.5;" x1="4644.5" x2="4958.5" y1="29.6094" y2="29.6094"/><text fill="#000000" font-family="sans-serif" font-size="14" font-weight="bold" lengthAdjust="spacing" textLength="301" x="4648.5" y="22.5332">pocketsage.blueprints.liabilities.repository</text><path d="M5003,6 L5279,6 A3.75,3.75 0 0 1 5281.5,8.5 L5288.5,29.6094 L5293,29.6094 A2.5,2.5 0 0 1 5295.5,32.1094 L5295.5,58.7188 A2.5,2.5 0 0 1 5293,61.2188 L5003,61.2188 A2.5,2.5 0 0 1 5000.5,58.7188 L5000.5,8.5 A2.5,2.5 0 0 1 5003,6 " fill="#F1F1F1" style="stroke:#181818;stroke-width:0.5;"/><line style="stroke:#181818;stroke-width:0.5;" x1="5000.5" x2="5288.5" y1="29.6094" y2="29.6094"/><text fill="#000000" font-family="sans-serif" font-size="14" font-weight="bold" lengthAdjust="spacing" textLength="275" x="5004.5" y="22.5332">pocketsage.blueprints.liabilities.routes</text><path d="M5333.5,6 L5556.5,6 A3.75,3.75 0 0 1 5559,8.5 L5566,29.6094 L5570.5,29.6094 A2.5,2.5 0 0 1 5573,32.1094 L5573,58.7188 A2.5,2.5 0 0 1 5570.5,61.2188 L5333.5,61.2188 A2.5,2.5 0 0 1 5331,58.7188 L5331,8.5 A2.5,2.5 0 0 1 5333.5,6 " fill="#F1F1F1" style="stroke:#181818;stroke-width:0.5;"/><line style="stroke:#181818;stroke-width:0.5;" x1="5331" x2="5566" y1="29.6094" y2="29.6094"/><text fill="#000000" font-family="sans-serif" font-size="14" font-weight="bold" lengthAdjust="spacing" textLength="222" x="5335" y="22.5332">pocketsage.blueprints.portfolio</text><path d="M5610.5,6 L5877.5,6 A3.75,3.75 0 0 1 5880,8.5 L5887,29.6094 L5891.5,29.6094 A2.5,2.5 0 0 1 5894,32.1094 L5894,58.7188 A2.5,2.5 0 0 1 5891.5,61.2188 L5610.5,61.2188 A2.5,2.5 0 0 1 5608,58.7188 L5608,8.5 A2.5,2.5 0 0 1 5610.5,6 " fill="#F1F1F1" style="stroke:#181818;stroke-width:0.5;"/><line style="stroke:#181818;stroke-width:0.5;" x1="5608" x2="5887" y1="29.6094" y2="29.6094"/><text fill="#000000" font-family="sans-serif" font-size="14" font-weight="bold" lengthAdjust="spacing" textLength="266" x="5612" y="22.5332">pocketsage.blueprints.portfolio.forms</text><path d="M5918.5,121 L6217.5,121 A3.75,3.75 0 0 1 6220,123.5 L6227,144.6094 L6231.5,144.6094 A2.5,2.5 0 0 1 6234,147.1094 L6234,173.7188 A2.5,2.5 0 0 1 6231.5,176.2188 L5918.5,176.2188 A2.5,2.5 0 0 1 5916,173.7188 L5916,123.5 A2.5,2.5 0 0 1 5918.5,121 " fill="#F1F1F1" style="stroke:#181818;stroke-width:0.5;"/><line style="stroke:#181818;stroke-width:0.5;" x1="5916" x2="6227" y1="144.6094" y2="144.6094"/><text fill="#000000" font-family="sans-serif" font-size="14" font-weight="bold" lengthAdjust="spacing" textLength="298" x="5920" y="137.5332">pocketsage.blueprints.portfolio.repository</text><path d="M5931.5,6 L6204.5,6 A3.75,3.75 0 0 1 6207,8.5 L6214,29.6094 L6218.5,29.6094 A2.5,2.5 0 0 1 6221,32.1094 L6221,58.7188 A2.5,2.5 0 0 1 6218.5,61.2188 L5931.5,61.2188 A2.5,2.5 0 0 1 5929,58.7188 L5929,8.5 A2.5,2.5 0 0 1 5931.5,6 " fill="#F1F1F1" style="stroke:#181818;stroke-width:0.5;"/><line style="stroke:#181818;stroke-width:0.5;" x1="5929" x2="6214" y1="29.6094" y2="29.6094"/><text fill="#000000" font-family="sans-serif" font-size="14" font-weight="bold" lengthAdjust="spacing" textLength="272" x="5933" y="22.5332">pocketsage.blueprints.portfolio.routes</text><path d="M980.5,6 L1083.5,6 A3.75,3.75 0 0 1 1086,8.5 L1093,29.6094 L1097.5,29.6094 A2.5,2.5 0 0 1 1100,32.1094 L1100,58.7188 A2.5,2.5 0 0 1 1097.5,61.2188 L980.5,61.2188 A2.5,2.5 0 0 1 978,58.7188 L978,8.5 A2.5,2.5 0 0 1 980.5,6 " fill="#F1F1F1" style="stroke:#181818;stroke-width:0.5;"/><line style="stroke:#181818;stroke-width:0.5;" x1="978" x2="1093" y1="29.6094" y2="29.6094"/><text fill="#000000" font-family="sans-serif" font-size="14" font-weight="bold" lengthAdjust="spacing" textLength="102" x="982" y="22.5332">pocketsage.cli</text><path d="M8.5,351 L139.5,351 A3.75,3.75 0 0 1 142,353.5 L149,374.6094 L153.5,374.6094 A2.5,2.5 0 0 1 156,377.1094 L156,403.7188 A2.5,2.5 0 0 1 153.5,406.2188 L8.5,406.2188 A2.5,2.5 0 0 1 6,403.7188 L6,353.5 A2.5,2.5 0 0 1 8.5,351 " fill="#F1F1F1" style="stroke:#181818;stroke-width:0.5;"/><line style="stroke:#181818;stroke-width:0.5;" x1="6" x2="149" y1="374.6094" y2="374.6094"/><text fill="#000000" font-family="sans-serif" font-size="14" font-weight="bold" lengthAdjust="spacing" textLength="130" x="10" y="367.5332">pocketsage.config</text><path d="M485.5,236 L650.5,236 A3.75,3.75 0 0 1 653,238.5 L660,259.6094 L664.5,259.6094 A2.5,2.5 0 0 1 667,262.1094 L667,288.7188 A2.5,2.5 0 0 1 664.5,291.2188 L485.5,291.2188 A2.5,2.5 0 0 1 483,288.7188 L483,238.5 A2.5,2.5 0 0 1 485.5,236 " fill="#F1F1F1" style="stroke:#181818;stroke-width:0.5;"/><line style="stroke:#181818;stroke-width:0.5;" x1="483" x2="660" y1="259.6094" y2="259.6094"/><text fill="#000000" font-family="sans-serif" font-size="14" font-weight="bold" lengthAdjust="spacing" textLength="164" x="487" y="252.5332">pocketsage.extensions</text><path d="M855,236 L993,236 A3.75,3.75 0 0 1 995.5,238.5 L1002.5,259.6094 L1007,259.6094 A2.5,2.5 0 0 1 1009.5,262.1094 L1009.5,288.7188 A2.5,2.5 0 0 1 1007,291.2188 L855,291.2188 A2.5,2.5 0 0 1 852.5,288.7188 L852.5,238.5 A2.5,2.5 0 0 1 855,236 " fill="#F1F1F1" style="stroke:#181818;stroke-width:0.5;"/><line style="stroke:#181818;stroke-width:0.5;" x1="852.5" x2="1002.5" y1="259.6094" y2="259.6094"/><text fill="#000000" font-family="sans-serif" font-size="14" font-weight="bold" lengthAdjust="spacing" textLength="137" x="856.5" y="252.5332">pocketsage.models</text><path d="M763,351 L961,351 A3.75,3.75 0 0 1 963.5,353.5 L970.5,374.6094 L975,374.6094 A2.5,2.5 0 0 1 977.5,377.1094 L977.5,403.7188 A2.5,2.5 0 0 1 975,406.2188 L763,406.2188 A2.5,2.5 0 0 1 760.5,403.7188 L760.5,353.5 A2.5,2.5 0 0 1 763,351 " fill="#F1F1F1" style="stroke:#181818;stroke-width:0.5;"/><line style="stroke:#181818;stroke-width:0.5;" x1="760.5" x2="970.5" y1="374.6094" y2="374.6094"/><text fill="#000000" font-family="sans-serif" font-size="14" font-weight="bold" lengthAdjust="spacing" textLength="197" x="764.5" y="367.5332">pocketsage.models.account</text><path d="M1158,351 L1350,351 A3.75,3.75 0 0 1 1352.5,353.5 L1359.5,374.6094 L1364,374.6094 A2.5,2.5 0 0 1 1366.5,377.1094 L1366.5,403.7188 A2.5,2.5 0 0 1 1364,406.2188 L1158,406.2188 A2.5,2.5 0 0 1 1155.5,403.7188 L1155.5,353.5 A2.5,2.5 0 0 1 1158,351 " fill="#F1F1F1" style="stroke:#181818;stroke-width:0.5;"/><line style="stroke:#181818;stroke-width:0.5;" x1="1155.5" x2="1359.5" y1="374.6094" y2="374.6094"/><text fill="#000000" font-family="sans-serif" font-size="14" font-weight="bold" lengthAdjust="spacing" textLength="191" x="1159.5" y="367.5332">pocketsage.models.budget</text><path d="M563.5,581 L766.5,581 A3.75,3.75 0 0 1 769,583.5 L776,604.6094 L780.5,604.6094 A2.5,2.5 0 0 1 783,607.1094 L783,633.7188 A2.5,2.5 0 0 1 780.5,636.2188 L563.5,636.2188 A2.5,2.5 0 0 1 561,633.7188 L561,583.5 A2.5,2.5 0 0 1 563.5,581 " fill="#F1F1F1" style="stroke:#181818;stroke-width:0.5;"/><line style="stroke:#181818;stroke-width:0.5;" x1="561" x2="776" y1="604.6094" y2="604.6094"/><text fill="#000000" font-family="sans-serif" font-size="14" font-weight="bold" lengthAdjust="spacing" textLength="202" x="565" y="597.5332">pocketsage.models.category</text><path d="M1404.5,351 L1581.5,351 A3.75,3.75 0 0 1 1584,353.5 L1591,374.6094 L1595.5,374.6094 A2.5,2.5 0 0 1 1598,377.1094 L1598,403.7188 A2.5,2.5 0 0 1 1595.5,406.2188 L1404.5,406.2188 A2.5,2.5 0 0 1 1402,403.7188 L1402,353.5 A2.5,2.5 0 0 1 1404.5,351 " fill="#F1F1F1" style="stroke:#181818;stroke-width:0.5;"/><line style="stroke:#181818;stroke-width:0.5;" x1="1402" x2="1591" y1="374.6094" y2="374.6094"/><text fill="#000000" font-family="sans-serif" font-size="14" font-weight="bold" lengthAdjust="spacing" textLength="176" x="1406" y="367.5332">pocketsage.models.habit</text><path d="M193.5,351 L384.5,351 A3.75,3.75 0 0 1 387,353.5 L394,374.6094 L398.5,374.6094 A2.5,2.5 0 0 1 401,377.1094 L401,403.7188 A2.5,2.5 0 0 1 398.5,406.2188 L193.5,406.2188 A2.5,2.5 0 0 1 191,403.7188 L191,353.5 A2.5,2.5 0 0 1 193.5,351 " fill="#F1F1F1" style="stroke:#181818;stroke-width:0.5;"/><line style="stroke:#181818;stroke-width:0.5;" x1="191" x2="394" y1="374.6094" y2="374.6094"/><text fill="#000000" font-family="sans-serif" font-size="14" font-weight="bold" lengthAdjust="spacing" textLength="190" x="195" y="367.5332">pocketsage.models.liability</text><path d="M830,466 L1032,466 A3.75,3.75 0 0 1 1034.5,468.5 L1041.5,489.6094 L1046,489.6094 A2.5,2.5 0 0 1 1048.5,492.1094 L1048.5,518.7188 A2.5,2.5 0 0 1 1046,521.2188 L830,521.2188 A2.5,2.5 0 0 1 827.5,518.7188 L827.5,468.5 A2.5,2.5 0 0 1 830,466 " fill="#F1F1F1" style="stroke:#181818;stroke-width:0.5;"/><line style="stroke:#181818;stroke-width:0.5;" x1="827.5" x2="1041.5" y1="489.6094" y2="489.6094"/><text fill="#000000" font-family="sans-serif" font-size="14" font-weight="bold" lengthAdjust="spacing" textLength="201" x="831.5" y="482.5332">pocketsage.models.portfolio</text><path d="M438.5,351 L637.5,351 A3.75,3.75 0 0 1 640,353.5 L647,374.6094 L651.5,374.6094 A2.5,2.5 0 0 1 654,377.1094 L654,403.7188 A2.5,2.5 0 0 1 651.5,406.2188 L438.5,406.2188 A2.5,2.5 0 0 1 436,403.7188 L436,353.5 A2.5,2.5 0 0 1 438.5,351 " fill="#F1F1F1" style="stroke:#181818;stroke-width:0.5;"/><line style="stroke:#181818;stroke-width:0.5;" x1="436" x2="647" y1="374.6094" y2="374.6094"/><text fill="#000000" font-family="sans-serif" font-size="14" font-weight="bold" lengthAdjust="spacing" textLength="198" x="440" y="367.5332">pocketsage.models.settings</text><path d="M554.5,466 L775.5,466 A3.75,3.75 0 0 1 778,468.5 L785,489.6094 L789.5,489.6094 A2.5,2.5 0 0 1 792,492.1094 L792,518.7188 A2.5,2.5 0 0 1 789.5,521.2188 L554.5,521.2188 A2.5,2.5 0 0 1 552,518.7188 L552,468.5 A2.5,2.5 0 0 1 554.5,466 " fill="#F1F1F1" style="stroke:#181818;stroke-width:0.5;"/><line style="stroke:#181818;stroke-width:0.5;" x1="552" x2="785" y1="489.6094" y2="489.6094"/><text fill="#000000" font-family="sans-serif" font-size="14" font-weight="bold" lengthAdjust="spacing" textLength="220" x="556" y="482.5332">pocketsage.models.transaction</text><path d="M6259,6 L6407,6 A3.75,3.75 0 0 1 6409.5,8.5 L6416.5,29.6094 L6421,29.6094 A2.5,2.5 0 0 1 6423.5,32.1094 L6423.5,58.7188 A2.5,2.5 0 0 1 6421,61.2188 L6259,61.2188 A2.5,2.5 0 0 1 6256.5,58.7188 L6256.5,8.5 A2.5,2.5 0 0 1 6259,6 " fill="#F1F1F1" style="stroke:#181818;stroke-width:0.5;"/><line style="stroke:#181818;stroke-width:0.5;" x1="6256.5" x2="6416.5" y1="29.6094" y2="29.6094"/><text fill="#000000" font-family="sans-serif" font-size="14" font-weight="bold" lengthAdjust="spacing" textLength="147" x="6260.5" y="22.5332">pocketsage.services</text><path d="M6461,6 L6685,6 A3.75,3.75 0 0 1 6687.5,8.5 L6694.5,29.6094 L6699,29.6094 A2.5,2.5 0 0 1 6701.5,32.1094 L6701.5,58.7188 A2.5,2.5 0 0 1 6699,61.2188 L6461,61.2188 A2.5,2.5 0 0 1 6458.5,58.7188 L6458.5,8.5 A2.5,2.5 0 0 1 6461,6 " fill="#F1F1F1" style="stroke:#181818;stroke-width:0.5;"/><line style="stroke:#181818;stroke-width:0.5;" x1="6458.5" x2="6694.5" y1="29.6094" y2="29.6094"/><text fill="#000000" font-family="sans-serif" font-size="14" font-weight="bold" lengthAdjust="spacing" textLength="223" x="6462.5" y="22.5332">pocketsage.services.budgeting</text><path d="M6739,6 L6931,6 A3.75,3.75 0 0 1 6933.5,8.5 L6940.5,29.6094 L6945,29.6094 A2.5,2.5 0 0 1 6947.5,32.1094 L6947.5,58.7188 A2.5,2.5 0 0 1 6945,61.2188 L6739,61.2188 A2.5,2.5 0 0 1 6736.5,58.7188 L6736.5,8.5 A2.5,2.5 0 0 1 6739,6 " fill="#F1F1F1" style="stroke:#181818;stroke-width:0.5;"/><line style="stroke:#181818;stroke-width:0.5;" x1="6736.5" x2="6940.5" y1="29.6094" y2="29.6094"/><text fill="#000000" font-family="sans-serif" font-size="14" font-weight="bold" lengthAdjust="spacing" textLength="191" x="6740.5" y="22.5332">pocketsage.services.debts</text><path d="M1635.5,351 L1866.5,351 A3.75,3.75 0 0 1 1869,353.5 L1876,374.6094 L1880.5,374.6094 A2.5,2.5 0 0 1 1883,377.1094 L1883,403.7188 A2.5,2.5 0 0 1 1880.5,406.2188 L1635.5,406.2188 A2.5,2.5 0 0 1 1633,403.7188 L1633,353.5 A2.5,2.5 0 0 1 1635.5,351 " fill="#F1F1F1" style="stroke:#181818;stroke-width:0.5;"/><line style="stroke:#181818;stroke-width:0.5;" x1="1633" x2="1876" y1="374.6094" y2="374.6094"/><text fill="#000000" font-family="sans-serif" font-size="14" font-weight="bold" lengthAdjust="spacing" textLength="230" x="1637" y="367.5332">pocketsage.services.export_csv</text><path d="M6985,6 L7215,6 A3.75,3.75 0 0 1 7217.5,8.5 L7224.5,29.6094 L7229,29.6094 A2.5,2.5 0 0 1 7231.5,32.1094 L7231.5,58.7188 A2.5,2.5 0 0 1 7229,61.2188 L6985,61.2188 A2.5,2.5 0 0 1 6982.5,58.7188 L6982.5,8.5 A2.5,2.5 0 0 1 6985,6 " fill="#F1F1F1" style="stroke:#181818;stroke-width:0.5;"/><line style="stroke:#181818;stroke-width:0.5;" x1="6982.5" x2="7224.5" y1="29.6094" y2="29.6094"/><text fill="#000000" font-family="sans-serif" font-size="14" font-weight="bold" lengthAdjust="spacing" textLength="229" x="6986.5" y="22.5332">pocketsage.services.import_csv</text><path d="M530,121 L712,121 A3.75,3.75 0 0 1 714.5,123.5 L721.5,144.6094 L726,144.6094 A2.5,2.5 0 0 1 728.5,147.1094 L728.5,173.7188 A2.5,2.5 0 0 1 726,176.2188 L530,176.2188 A2.5,2.5 0 0 1 527.5,173.7188 L527.5,123.5 A2.5,2.5 0 0 1 530,121 " fill="#F1F1F1" style="stroke:#181818;stroke-width:0.5;"/><line style="stroke:#181818;stroke-width:0.5;" x1="527.5" x2="721.5" y1="144.6094" y2="144.6094"/><text fill="#000000" font-family="sans-serif" font-size="14" font-weight="bold" lengthAdjust="spacing" textLength="181" x="531.5" y="137.5332">pocketsage.services.jobs</text><path d="M1296,236 L1500,236 A3.75,3.75 0 0 1 1502.5,238.5 L1509.5,259.6094 L1514,259.6094 A2.5,2.5 0 0 1 1516.5,262.1094 L1516.5,288.7188 A2.5,2.5 0 0 1 1514,291.2188 L1296,291.2188 A2.5,2.5 0 0 1 1293.5,288.7188 L1293.5,238.5 A2.5,2.5 0 0 1 1296,236 " fill="#F1F1F1" style="stroke:#181818;stroke-width:0.5;"/><line style="stroke:#181818;stroke-width:0.5;" x1="1293.5" x2="1509.5" y1="259.6094" y2="259.6094"/><text fill="#000000" font-family="sans-serif" font-size="14" font-weight="bold" lengthAdjust="spacing" textLength="203" x="1297.5" y="252.5332">pocketsage.services.reports</text><path d="M7269,6 L7477,6 A3.75,3.75 0 0 1 7479.5,8.5 L7486.5,29.6094 L7491,29.6094 A2.5,2.5 0 0 1 7493.5,32.1094 L7493.5,58.7188 A2.5,2.5 0 0 1 7491,61.2188 L7269,61.2188 A2.5,2.5 0 0 1 7266.5,58.7188 L7266.5,8.5 A2.5,2.5 0 0 1 7269,6 " fill="#F1F1F1" style="stroke:#181818;stroke-width:0.5;"/><line style="stroke:#181818;stroke-width:0.5;" x1="7266.5" x2="7486.5" y1="29.6094" y2="29.6094"/><text fill="#000000" font-family="sans-serif" font-size="14" font-weight="bold" lengthAdjust="spacing" textLength="207" x="7270.5" y="22.5332">pocketsage.services.watcher</text><!--link pocketsage to pocketsage.config--><g id="link_pocketsage_pocketsage.config"><path codeLine="84" d="M315.97,176.1 C264.85,219.92 168.0654,302.8751 116.8054,346.8151 " fill="none" id="pocketsage-to-pocketsage.config" style="stroke:#181818;stroke-width:1.0;"/><polygon fill="#181818" points="112.25,350.72,121.6864,347.8996,116.0462,347.4659,116.4799,341.8257,112.25,350.72" style="stroke:#181818;stroke-width:1.0;"/></g><!--link pocketsage to pocketsage.extensions--><g id="link_pocketsage_pocketsage.extensions"><path codeLine="85" d="M398.17,174.86 C434.8,193.01 478.6439,214.7458 515.8539,233.1858 " fill="none" id="pocketsage-to-pocketsage.extensions" style="stroke:#181818;stroke-width:1.0;"/><polygon fill="#181818" points="521.23,235.85,514.942,228.2697,516.7499,233.6298,511.3898,235.4378,521.23,235.85" style="stroke:#181818;stroke-width:1.0;"/></g><!--link pocketsage.blueprints.admin.routes to pocketsage.blueprints.admin.tasks--><g id="link_pocketsage.blueprints.admin.routes_pocketsage.blueprints.admin.tasks"><path codeLine="86" d="M851.75,61.14 C890.8,79.15 936.7121,100.316 975.7621,118.336 " fill="none" id="pocketsage.blueprints.admin.routes-to-pocketsage.blueprints.admin.tasks" style="stroke:#181818;stroke-width:1.0;"/><polygon fill="#181818" points="981.21,120.85,974.7141,113.4471,976.6701,118.755,971.3621,120.711,981.21,120.85" style="stroke:#181818;stroke-width:1.0;"/></g><!--link pocketsage.blueprints.admin.routes to pocketsage.extensions--><g id="link_pocketsage.blueprints.admin.routes_pocketsage.extensions"><path codeLine="87" d="M791.05,61.22 C786.38,92.13 774.65,142.99 746,176 C722.78,202.76 694.7802,219.8325 663.5802,233.4325 " fill="none" id="pocketsage.blueprints.admin.routes-to-pocketsage.extensions" style="stroke:#181818;stroke-width:1.0;"/><polygon fill="#181818" points="658.08,235.83,667.9286,235.9005,662.6635,233.8321,664.7319,228.5669,658.08,235.83" style="stroke:#181818;stroke-width:1.0;"/></g><!--link pocketsage.blueprints.admin.routes to pocketsage.models--><g id="link_pocketsage.blueprints.admin.routes_pocketsage.models"><path codeLine="88" d="M809.98,61.1 C836.31,104.92 885.4199,186.6369 911.8199,230.5769 " fill="none" id="pocketsage.blueprints.admin.routes-to-pocketsage.models" style="stroke:#181818;stroke-width:1.0;"/><polygon fill="#181818" points="914.91,235.72,913.7036,225.9453,912.3349,231.4341,906.8462,230.0654,914.91,235.72" style="stroke:#181818;stroke-width:1.0;"/></g><!--link pocketsage.blueprints.admin.routes to pocketsage.services.jobs--><g id="link_pocketsage.blueprints.admin.routes_pocketsage.services.jobs"><path codeLine="89" d="M754.66,61.28 C728.2,79.29 698.42,99.5638 672.02,117.5338 " fill="none" id="pocketsage.blueprints.admin.routes-to-pocketsage.services.jobs" style="stroke:#181818;stroke-width:1.0;"/><polygon fill="#181818" points="667.06,120.91,676.7508,119.1524,671.1933,118.0965,672.2492,112.5391,667.06,120.91" style="stroke:#181818;stroke-width:1.0;"/></g><!--link pocketsage.blueprints.admin.tasks to pocketsage.extensions--><g id="link_pocketsage.blueprints.admin.tasks_pocketsage.extensions"><path codeLine="90" d="M929.92,176.06 C850.09,195.51 748.7797,220.1806 673.1697,238.5906 " fill="none" id="pocketsage.blueprints.admin.tasks-to-pocketsage.extensions" style="stroke:#181818;stroke-width:1.0;"/><polygon fill="#181818" points="667.34,240.01,677.0308,241.7673,672.1981,238.8271,675.1382,233.9944,667.34,240.01" style="stroke:#181818;stroke-width:1.0;"/></g><!--link pocketsage.blueprints.admin.tasks to pocketsage.models--><g id="link_pocketsage.blueprints.admin.tasks_pocketsage.models"><path codeLine="91" d="M1013.41,176.28 C996.19,194.29 977.7362,213.6031 960.5562,231.5731 " fill="none" id="pocketsage.blueprints.admin.tasks-to-pocketsage.models" style="stroke:#181818;stroke-width:1.0;"/><polygon fill="#181818" points="956.41,235.91,965.5206,232.1688,959.8652,232.2959,959.7381,226.6405,956.41,235.91" style="stroke:#181818;stroke-width:1.0;"/></g><!--link pocketsage.blueprints.admin.tasks to pocketsage.services.export_csv--><g id="link_pocketsage.blueprints.admin.tasks_pocketsage.services.export_csv"><path codeLine="92" d="M1171.71,158.58 C1273.59,168.88 1416.29,190.59 1534,236 C1607.81,264.48 1678.8211,314.8799 1720.5811,347.3099 " fill="none" id="pocketsage.blueprints.admin.tasks-to-pocketsage.services.export_csv" style="stroke:#181818;stroke-width:1.0;"/><polygon fill="#181818" points="1725.32,350.99,1720.6651,342.3106,1721.3709,347.9232,1715.7583,348.6291,1725.32,350.99" style="stroke:#181818;stroke-width:1.0;"/></g><!--link pocketsage.blueprints.admin.tasks to pocketsage.services.reports--><g id="link_pocketsage.blueprints.admin.tasks_pocketsage.services.reports"><path codeLine="93" d="M1125.27,176.14 C1183.71,194.18 1254.8769,216.1504 1313.2569,234.1704 " fill="none" id="pocketsage.blueprints.admin.tasks-to-pocketsage.services.reports" style="stroke:#181818;stroke-width:1.0;"/><polygon fill="#181818" points="1318.99,235.94,1311.5701,229.4635,1314.2124,234.4653,1309.2106,237.1076,1318.99,235.94" style="stroke:#181818;stroke-width:1.0;"/></g><!--link pocketsage.blueprints.portfolio.routes to pocketsage.blueprints.portfolio.repository--><g id="link_pocketsage.blueprints.portfolio.routes_pocketsage.blueprints.portfolio.repository"><path codeLine="94" d="M6075,61.28 C6075,79.29 6075,96.94 6075,114.91 " fill="none" id="pocketsage.blueprints.portfolio.routes-to-pocketsage.blueprints.portfolio.repository" style="stroke:#181818;stroke-width:1.0;"/><polygon fill="#181818" points="6075,120.91,6079,111.91,6075,115.91,6071,111.91,6075,120.91" style="stroke:#181818;stroke-width:1.0;"/></g><!--link pocketsage.cli to pocketsage.blueprints.admin.tasks--><g id="link_pocketsage.cli_pocketsage.blueprints.admin.tasks"><path codeLine="95" d="M1039,61.28 C1039,79.29 1039,96.94 1039,114.91 " fill="none" id="pocketsage.cli-to-pocketsage.blueprints.admin.tasks" style="stroke:#181818;stroke-width:1.0;"/><polygon fill="#181818" points="1039,120.91,1043,111.91,1039,115.91,1035,111.91,1039,120.91" style="stroke:#181818;stroke-width:1.0;"/></g><!--link pocketsage.extensions to pocketsage.config--><g id="link_pocketsage.extensions_pocketsage.config"><path codeLine="96" d="M482.78,282.47 C401.03,298.85 278.59,324.47 173,351 C167.52,352.38 167.6628,352.2969 161.9928,353.8269 " fill="none" id="pocketsage.extensions-to-pocketsage.config" style="stroke:#181818;stroke-width:1.0;"/><polygon fill="#181818" points="156.2,355.39,165.9313,356.9072,161.0273,354.0874,163.8471,349.1834,156.2,355.39" style="stroke:#181818;stroke-width:1.0;"/></g><!--link pocketsage.models to pocketsage.models.account--><g id="link_pocketsage.models_pocketsage.models.account"><path codeLine="97" d="M916.31,291.28 C906.42,309.29 896.3362,327.6798 886.4762,345.6498 " fill="none" id="pocketsage.models-to-pocketsage.models.account" style="stroke:#181818;stroke-width:1.0;"/><polygon fill="#181818" points="883.59,350.91,891.4261,344.9439,885.9952,346.5265,884.4125,341.0956,883.59,350.91" style="stroke:#181818;stroke-width:1.0;"/></g><!--link pocketsage.models to pocketsage.models.budget--><g id="link_pocketsage.models_pocketsage.models.budget"><path codeLine="98" d="M1008.79,291.14 C1061.48,309.18 1125.1334,330.9768 1177.7734,348.9968 " fill="none" id="pocketsage.models-to-pocketsage.models.budget" style="stroke:#181818;stroke-width:1.0;"/><polygon fill="#181818" points="1183.45,350.94,1176.2306,344.2407,1178.7195,349.3206,1173.6396,351.8095,1183.45,350.94" style="stroke:#181818;stroke-width:1.0;"/></g><!--link pocketsage.models to pocketsage.models.category--><g id="link_pocketsage.models_pocketsage.models.category"><path codeLine="99" d="M964.34,291.23 C1021.44,340.18 1126.24,446.1 1066,521 C1031.05,564.45 893.0862,586.6838 789.2762,597.7538 " fill="none" id="pocketsage.models-to-pocketsage.models.category" style="stroke:#181818;stroke-width:1.0;"/><polygon fill="#181818" points="783.31,598.39,792.6834,601.4131,788.2818,597.8598,791.8351,593.4582,783.31,598.39" style="stroke:#181818;stroke-width:1.0;"/></g><!--link pocketsage.models to pocketsage.models.habit--><g id="link_pocketsage.models_pocketsage.models.habit"><path codeLine="100" d="M1009.73,278.65 C1100.23,295.11 1253.13,323.57 1384,351 C1389.86,352.23 1390.027,352.245 1396.097,353.565 " fill="none" id="pocketsage.models-to-pocketsage.models.habit" style="stroke:#181818;stroke-width:1.0;"/><polygon fill="#181818" points="1401.96,354.84,1394.0155,349.0189,1397.0742,353.7775,1392.3156,356.8362,1401.96,354.84" style="stroke:#181818;stroke-width:1.0;"/></g><!--link pocketsage.models to pocketsage.models.liability--><g id="link_pocketsage.models_pocketsage.models.liability"><path codeLine="101" d="M852.14,276.62 C751.24,292.4 571.21,321.46 418,351 C412.47,352.07 412.6803,351.9975 406.9603,353.1575 " fill="none" id="pocketsage.models-to-pocketsage.models.liability" style="stroke:#181818;stroke-width:1.0;"/><polygon fill="#181818" points="401.08,354.35,410.6955,356.4814,405.9802,353.3562,409.1054,348.641,401.08,354.35" style="stroke:#181818;stroke-width:1.0;"/></g><!--link pocketsage.models to pocketsage.models.portfolio--><g id="link_pocketsage.models_pocketsage.models.portfolio"><path codeLine="102" d="M957.72,291.09 C971.76,307 987.57,328.47 995,351 C1002.65,374.22 1002.02,382.59 995,406 C988.39,428.05 977.8364,444.9539 965.2364,461.0639 " fill="none" id="pocketsage.models-to-pocketsage.models.portfolio" style="stroke:#181818;stroke-width:1.0;"/><polygon fill="#181818" points="961.54,465.79,970.2354,461.1651,964.6204,461.8515,963.9339,456.2365,961.54,465.79" style="stroke:#181818;stroke-width:1.0;"/></g><!--link pocketsage.models to pocketsage.models.settings--><g id="link_pocketsage.models_pocketsage.models.settings"><path codeLine="103" d="M852.42,287.5 C789.6,305.89 707.2184,330.0145 641.4184,349.2745 " fill="none" id="pocketsage.models-to-pocketsage.models.settings" style="stroke:#181818;stroke-width:1.0;"/><polygon fill="#181818" points="635.66,350.96,645.4213,352.2707,640.4587,349.5554,643.1739,344.5928,635.66,350.96" style="stroke:#181818;stroke-width:1.0;"/></g><!--link pocketsage.models to pocketsage.models.transaction--><g id="link_pocketsage.models_pocketsage.models.transaction"><path codeLine="104" d="M852.11,287.3 C815.45,301.03 773.35,321.66 743,351 C709.6,383.28 691.1768,428.8917 681.2768,460.0517 " fill="none" id="pocketsage.models-to-pocketsage.models.transaction" style="stroke:#181818;stroke-width:1.0;"/><polygon fill="#181818" points="679.46,465.77,685.9974,458.4037,680.974,461.0047,678.373,455.9813,679.46,465.77" style="stroke:#181818;stroke-width:1.0;"/></g><!--link pocketsage.services.reports to pocketsage.services.export_csv--><g id="link_pocketsage.services.reports_pocketsage.services.export_csv"><path codeLine="105" d="M1488.21,291.14 C1544.57,309.18 1613.0256,331.091 1669.3256,349.111 " fill="none" id="pocketsage.services.reports-to-pocketsage.services.export_csv" style="stroke:#181818;stroke-width:1.0;"/><polygon fill="#181818" points="1675.04,350.94,1667.6877,344.3868,1670.278,349.4158,1665.249,352.0061,1675.04,350.94" style="stroke:#181818;stroke-width:1.0;"/></g><!--link pocketsage.models.account to pocketsage.models.portfolio--><g id="link_pocketsage.models.account_pocketsage.models.portfolio"><path codeLine="106" d="M874.32,406.28 C883.02,424.29 893.9023,443.1159 907.1923,461.0859 " fill="none" id="pocketsage.models.account-to-pocketsage.models.portfolio" style="stroke:#181818;stroke-width:1.0;stroke-dasharray:7.0,7.0;"/><polygon fill="#181818" points="910.76,465.91,908.6245,456.2955,907.7869,461.89,902.1924,461.0524,910.76,465.91" style="stroke:#181818;stroke-width:1.0;"/></g><!--link pocketsage.models.portfolio to pocketsage.models.account--><g id="link_pocketsage.models.portfolio_pocketsage.models.account"><path codeLine="109" d="M933.42,465.91 C924.9,447.94 914.0585,429.0986 900.6185,411.0886 " fill="none" id="pocketsage.models.portfolio-to-pocketsage.models.account" style="stroke:#181818;stroke-width:1.0;stroke-dasharray:7.0,7.0;"/><polygon fill="#181818" points="897.03,406.28,899.2069,415.8853,900.0204,410.2872,905.6184,411.1007,897.03,406.28" style="stroke:#181818;stroke-width:1.0;"/></g><!--link pocketsage.models.account to pocketsage.models.transaction--><g id="link_pocketsage.models.account_pocketsage.models.transaction"><path codeLine="107" d="M811.55,406.14 C777.84,424.15 741.6407,444.6704 712.5507,462.6904 " fill="none" id="pocketsage.models.account-to-pocketsage.models.transaction" style="stroke:#181818;stroke-width:1.0;stroke-dasharray:7.0,7.0;"/><polygon fill="#181818" points="707.45,465.85,717.2074,464.511,711.7005,463.217,712.9946,457.7101,707.45,465.85" style="stroke:#181818;stroke-width:1.0;"/></g><!--link pocketsage.models.transaction to pocketsage.models.account--><g id="link_pocketsage.models.transaction_pocketsage.models.account"><path codeLine="110" d="M730,465.91 C763.79,447.94 799.9349,427.4586 828.8949,409.4486 " fill="none" id="pocketsage.models.transaction-to-pocketsage.models.account" style="stroke:#181818;stroke-width:1.0;stroke-dasharray:7.0,7.0;"/><polygon fill="#181818" points="833.99,406.28,824.235,407.6362,829.7441,408.9205,828.4598,414.4296,833.99,406.28" style="stroke:#181818;stroke-width:1.0;"/></g><!--link pocketsage.models.category to pocketsage.models.transaction--><g id="link_pocketsage.models.category_pocketsage.models.transaction"><path codeLine="108" d="M683.65,580.91 C686.11,562.94 686.9255,545.2357 684.4855,527.2257 " fill="none" id="pocketsage.models.category-to-pocketsage.models.transaction" style="stroke:#181818;stroke-width:1.0;stroke-dasharray:7.0,7.0;"/><polygon fill="#181818" points="683.68,521.28,680.9245,530.7355,684.3513,526.2347,688.8521,529.6615,683.68,521.28" style="stroke:#181818;stroke-width:1.0;"/></g><!--link pocketsage.models.transaction to pocketsage.models.category--><g id="link_pocketsage.models.transaction_pocketsage.models.category"><path codeLine="111" d="M660.97,521.28 C658.67,539.29 657.915,556.989 660.225,574.959 " fill="none" id="pocketsage.models.transaction-to-pocketsage.models.category" style="stroke:#181818;stroke-width:1.0;stroke-dasharray:7.0,7.0;"/><polygon fill="#181818" points="660.99,580.91,663.8099,571.4735,660.3525,575.9508,655.8752,572.4934,660.99,580.91" style="stroke:#181818;stroke-width:1.0;"/></g><!--SRC=[hPTRSkiW38RVlGfFt-ibd4rq0HrC59V61W-GNgPpzduStt0miaHwtbhq_nzO24GS-5AB3bml9Bn0BwpmnfRQQ2Y6eOjee7pgZRo0TyFVJwLmPVYt_2d-fcHLtLwXjqfx5pas4OQv4gTEQHmnnTcWofgh1qVnPXaVwuMxqDHHnO6-YLeT9MuMy57LsTYE1awo3Ao5tZWrrCitpGxQd0ce_RhJSS0jd1gm1yH9m4UHkTtACh2itEwqEHDGkRtJiS1gs8rMUNMC3QfCA9tgM9ix0I_fIKFsL6JwTsBE5Bsn_cnQPGx8goOBI6O_KkR1MPbFoJEdeR8UIr6yR5MC6OPmkT5drUmSuoXgWYyFsYcZToiE4TJScHEqE-CqIfWg8QMvQfysBr4AKb-7-mDZJ44A8OM79b4JKPZ2Z5q2OOmn2h2SHMmXQvm2eSSpZbCW1zuhtI3xkuOfZBT2Eo7zK4a8QQD0OGxiXvBxSxMCayQv78OLOuYWe64dg3swbYbAG-3hjXUlqdsWf22XSQeZSK52uzvDZN_XBKWZRbUeFSZJ7AT1dyBBj_sRAevFeF3JuVdvp_ugF124AwzWlDqZS_en_W3eLwkOZjG3nhkjBUWV6OyjEkbbh3dfIvoINq3cOYoOJHlV_TGJeeXwU7RjRBenLTLB0qvcUUciRFrqARBbIxza6yRco5QlNP3jM7U3xLWQ6zkmwL_5qJMNLxxHIwYgCh-ES2ABZfyzZvZ32oFjHalmxYNm_xtBH_q3]--></g></svg>