<?xml version="1.0" encoding="us-ascii" standalone="no"?><svg xmlns="http://www.w3.org/2000/svg" xmlns:xlink="http://www.w3.org/1999/xlink" contentStyleType="text/css" height="470px" preserveAspectRatio="none" style="width:633px;height:470px;background:#FFFFFF;" version="1.1" viewBox="0 0 633 470" width="633px" zoomAndPan="magnify"><defs/><g><line style="stroke:#181818;stroke-width:0.5;stroke-dasharray:5.0,5.0;" x1="22" x2="22" y1="82.6094" y2="388.7734"/><line style="stroke:#181818;stroke-width:0.5;stroke-dasharray:5.0,5.0;" x1="115.5" x2="115.5" y1="82.6094" y2="388.7734"/><line style="stroke:#181818;stroke-width:0.5;stroke-dasharray:5.0,5.0;" x1="315.5" x2="315.5" y1="82.6094" y2="388.7734"/><line style="stroke:#181818;stroke-width:0.5;stroke-dasharray:5.0,5.0;" x1="436.5" x2="436.5" y1="82.6094" y2="388.7734"/><line style="stroke:#181818;stroke-width:0.5;stroke-dasharray:5.0,5.0;" x1="597.5" x2="597.5" y1="82.6094" y2="388.7734"/><text fill="#000000" font-family="sans-serif" font-size="14" lengthAdjust="spacing" textLength="29" x="5" y="79.5332">User</text><ellipse cx="22.5" cy="13.5" fill="#E2E2F0" rx="8" ry="8" style="stroke:#181818;stroke-width:0.5;"/><path d="M22.5,21.5 L22.5,48.5 M9.5,29.5 L35.5,29.5 M22.5,48.5 L9.5,63.5 M22.5,48.5 L35.5,63.5 " fill="none" style="stroke:#181818;stroke-width:0.5;"/><text fill="#000000" font-family="sans-serif" font-size="14" lengthAdjust="spacing" textLength="29" x="5" y="402.3066">User</text><ellipse cx="22.5" cy="413.8828" fill="#E2E2F0" rx="8" ry="8" style="stroke:#181818;stroke-width:0.5;"/><path d="M22.5,421.8828 L22.5,448.8828 M9.5,429.8828 L35.5,429.8828 M22.5,448.8828 L9.5,463.8828 M22.5,448.8828 L35.5,463.8828 " fill="none" style="stroke:#181818;stroke-width:0.5;"/><rect fill="#E2E2F0" height="31.6094" rx="2.5" ry="2.5" style="stroke:#181818;stroke-width:0.5;" width="26" x="102.5" y="50"/><text fill="#000000" font-family="sans-serif" font-size="14" lengthAdjust="spacing" textLength="12" x="109.5" y="71.5332">UI</text><rect fill="#E2E2F0" height="31.6094" rx="2.5" ry="2.5" style="stroke:#181818;stroke-width:0.5;" width="26" x="102.5" y="387.7734"/><text fill="#000000" font-family="sans-serif" font-size="14" lengthAdjust="spacing" textLength="12" x="109.5" y="409.3066">UI</text><rect fill="#E2E2F0" height="31.6094" rx="2.5" ry="2.5" style="stroke:#181818;stroke-width:0.5;" width="100" x="265.5" y="50"/><text fill="#000000" font-family="sans-serif" font-size="14" lengthAdjust="spacing" textLength="86" x="272.5" y="71.5332">ImportService</text><rect fill="#E2E2F0" height="31.6094" rx="2.5" ry="2.5" style="stroke:#181818;stroke-width:0.5;" width="100" x="265.5" y="387.7734"/><text fill="#000000" font-family="sans-serif" font-size="14" lengthAdjust="spacing" textLength="86" x="272.5" y="409.3066">ImportService</text><rect fill="#E2E2F0" height="31.6094" rx="2.5" ry="2.5" style="stroke:#181818;stroke-width:0.5;" width="123" x="375.5" y="50"/><text fill="#000000" font-family="sans-serif" font-size="14" lengthAdjust="spacing" textLength="109" x="382.5" y="71.5332">TransactionRepo</text><rect fill="#E2E2F0" height="31.6094" rx="2.5" ry="2.5" style="stroke:#181818;stroke-width:0.5;" width="123" x="375.5" y="387.7734"/><text fill="#000000" font-family="sans-serif" font-size="14" lengthAdjust="spacing" textLength="109" x="382.5" y="409.3066">TransactionRepo</text><text fill="#000000" font-family="sans-serif" font-size="14" lengthAdjust="spacing" textLength="43" x="573.5" y="79.5332">SQLite</text><path d="M580,29 C580,19 598,19 598,19 C598,19 616,19 616,29 L616,55 C616,65 598,65 598,65 C598,65 580,65 580,55 L580,29 " fill="#E2E2F0" style="stroke:#181818;stroke-width:1.5;"/><path d="M580,29 C580,39 598,39 598,39 C598,39 616,39 616,29 " fill="none" style="stroke:#181818;stroke-width:1.5;"/><text fill="#000000" font-family="sans-serif" font-size="14" lengthAdjust="spacing" textLength="43" x="573.5" y="402.3066">SQLite</text><path d="M580,415.3828 C580,405.3828 598,405.3828 598,405.3828 C598,405.3828 616,405.3828 616,415.3828 L616,441.3828 C616,451.3828 598,451.3828 598,451.3828 C598,451.3828 580,451.3828 580,441.3828 L580,415.3828 " fill="#E2E2F0" style="stroke:#181818;stroke-width:1.5;"/><path d="M580,415.3828 C580,425.3828 598,425.3828 598,425.3828 C598,425.3828 616,425.3828 616,415.3828 " fill="none" style="stroke:#181818;stroke-width:1.5;"/><polygon fill="#181818" points="103.5,110.9609,113.5,114.9609,103.5,118.9609,107.5,114.9609" style="stroke:#181818;stroke-width:1.0;"/><line style="stroke:#181818;stroke-width:1.0;" x1="22.5" x2="109.5" y1="114.9609" y2="114.9609"/><text fill="#000000" font-family="sans-serif" font-size="13" lengthAdjust="spacing" textLength="69" x="29.5" y="110.1045">upload CSV</text><polygon fill="#181818" points="303.5,141.3125,313.5,145.3125,303.5,149.3125,307.5,145.3125" style="stroke:#181818;stroke-width:1.0;"/><line style="stroke:#181818;stroke-width:1.0;" x1="115.5" x2="309.5" y1="145.3125" y2="145.3125"/><text fill="#000000" font-family="sans-serif" font-size="13" lengthAdjust="spacing" textLength="56" x="122.5" y="140.4561">parse(file)</text><line style="stroke:#181818;stroke-width:1.0;" x1="315.5" x2="357.5" y1="175.6641" y2="175.6641"/><line style="stroke:#181818;stroke-width:1.0;" x1="357.5" x2="357.5" y1="175.6641" y2="188.6641"/><line style="stroke:#181818;stroke-width:1.0;" x1="316.5" x2="357.5" y1="188.6641" y2="188.6641"/><polygon fill="#181818" points="326.5,184.6641,316.5,188.6641,326.5,192.6641,322.5,188.6641" style="stroke:#181818;stroke-width:1.0;"/><text fill="#000000" font-family="sans-serif" font-size="13" lengthAdjust="spacing" textLength="83" x="322.5" y="170.8076">dedupe + map</text><polygon fill="#181818" points="425,215.0156,435,219.0156,425,223.0156,429,219.0156" style="stroke:#181818;stroke-width:1.0;"/><line style="stroke:#181818;stroke-width:1.0;" x1="315.5" x2="431" y1="219.0156" y2="219.0156"/><text fill="#000000" font-family="sans-serif" font-size="13" lengthAdjust="spacing" textLength="92" x="322.5" y="214.1592">bulk_upsert(list)</text><polygon fill="#181818" points="586,245.3672,596,249.3672,586,253.3672,590,249.3672" style="stroke:#181818;stroke-width:1.0;"/><line style="stroke:#181818;stroke-width:1.0;" x1="437" x2="592" y1="249.3672" y2="249.3672"/><text fill="#000000" font-family="sans-serif" font-size="13" lengthAdjust="spacing" textLength="137" x="444" y="244.5107">insert or replace N rows</text><polygon fill="#181818" points="448,275.7188,438,279.7188,448,283.7188,444,279.7188" style="stroke:#181818;stroke-width:1.0;"/><line style="stroke:#181818;stroke-width:1.0;stroke-dasharray:2.0,2.0;" x1="442" x2="597" y1="279.7188" y2="279.7188"/><text fill="#000000" font-family="sans-serif" font-size="13" lengthAdjust="spacing" textLength="39" x="454" y="274.8623">counts</text><polygon fill="#181818" points="326.5,306.0703,316.5,310.0703,326.5,314.0703,322.5,310.0703" style="stroke:#181818;stroke-width:1.0;"/><line style="stroke:#181818;stroke-width:1.0;stroke-dasharray:2.0,2.0;" x1="320.5" x2="436" y1="310.0703" y2="310.0703"/><text fill="#000000" font-family="sans-serif" font-size="13" lengthAdjust="spacing" textLength="54" x="332.5" y="305.2139">summary</text><polygon fill="#181818" points="126.5,336.4219,116.5,340.4219,126.5,344.4219,122.5,340.4219" style="stroke:#181818;stroke-width:1.0;"/><line style="stroke:#181818;stroke-width:1.0;stroke-dasharray:2.0,2.0;" x1="120.5" x2="314.5" y1="340.4219" y2="340.4219"/><text fill="#000000" font-family="sans-serif" font-size="13" lengthAdjust="spacing" textLength="176" x="132.5" y="335.5654">report (imported N, skipped M)</text><polygon fill="#181818" points="33.5,366.7734,23.5,370.7734,33.5,374.7734,29.5,370.7734" style="stroke:#181818;stroke-width:1.0;"/><line style="stroke:#181818;stroke-width:1.0;stroke-dasharray:2.0,2.0;" x1="27.5" x2="114.5" y1="370.7734" y2="370.7734"/><text fill="#000000" font-family="sans-serif" font-size="13" lengthAdjust="spacing" textLength="28" x="39.5" y="365.917">done</text><!--SRC=[LP1DJiGm38NtEONLLIkO2tJ1edGJYHbf9fGjygH6YYPDhFo0k3r9A4YpivwVtsSRTV81baX1C8Paj65q2Rf5Te0H5dalourzI8h2fz7K75BTEru3keWw6UyknBvvQY5MJ7Z5ID2fyuj9lzFp92eR3ay5DK9cwt65P_Kc5bb5gKOeyP7w3sDf45BzgIkjcGaUO4FUvOePuPhjxJrpIKszDJ4DekgrFqyZ65SRK6uEn1OrmGc2_ufYdk3mdw5zTYdkWpimvct3yDrO-xebedm3UjE-GYkS7Y7U37CfZqCxeJeBiUph7Vq0]--></g></svg>